<svg width="21px" height="36px" viewBox="0 0 21 36" version="1.1" xmlns="http://www.w3.org/2000/svg" xmlns:xlink="http://www.w3.org/1999/xlink">
    <desc>Created by a designer.</desc>
    <defs></defs>
    <g id="Symbols" stroke="none" stroke-width="1" fill="none" fill-rule="evenodd">
        <g id="Next-icon" fill="#005EA5">
            <path d="M20.6391753,17.1703407 C20.8797263,17.4108228 21,17.6873732 21,18 C21,18.3126268 20.8797263,18.5891772 20.6391753,18.8296593 L3.82474227,35.6392786 C3.58419124,35.8797607 3.3075617,36 2.99484536,36 C2.68212902,36 2.40549948,35.8797607 2.16494845,35.6392786 L0.360824742,33.8356713 C0.120273711,33.5951892 0,33.3186388 0,33.006012 C0,32.6933852 0.120273711,32.4168349 0.360824742,32.1763527 L14.5412371,18 L0.360824742,3.82364729 C0.120273711,3.58316513 0,3.30661479 0,2.99398798 C0,2.68136116 0.120273711,2.40481082 0.360824742,2.16432866 L2.16494845,0.360721443 C2.40549948,0.120239279 2.68212902,0 2.99484536,0 C3.3075617,0 3.58419124,0.120239279 3.82474227,0.360721443 L20.6391753,17.1703407 Z"></path>
        </g>
    </g>
</svg>