<svg width="578px" height="18px" viewBox="0 0 578 18" version="1.1" xmlns="http://www.w3.org/2000/svg" xmlns:xlink="http://www.w3.org/1999/xlink">
    <!-- Generator: Sketch 46.2 (44496) - http://www.bohemiancoding.com/sketch -->
    <desc>Created with Sketch.</desc>
    <defs></defs>
    <g id="Page-1" stroke="none" stroke-width="1" fill="none" fill-rule="evenodd">
        <g id="Artboard" transform="translate(0.000000, -4.000000)">
            <g id="Breadcrumbs">
                <text id="Single-Page-Platform" font-family="GDSTransportWebsite, GDS Transport Website" font-size="19" font-weight="300" text-decoration="underline" fill="#0B0C0C">
                    <tspan x="0" y="18">Single Page Platform Development Kit</tspan>
                </text>
                <text id="Components" font-family="GDSTransportWebsite, GDS Transport Website" font-size="19" font-weight="300" text-decoration="underline" fill="#0B0C0C">
                    <tspan x="359" y="18">Components</tspan>
                </text>
                <text id="Timeline" font-family="GDSTransportWebsite, GDS Transport Website" font-size="19" font-weight="300" line-spacing="25" fill="#0B0C0C">
                    <tspan x="509" y="18">Timeline</tspan>
                </text>
                <path d="M489.308594,11.8928571 C489.308594,11.9847475 489.273252,12.0660339 489.202567,12.1367187 L484.261719,17.077567 C484.191034,17.1482518 484.109747,17.1835937 484.017857,17.1835937 C483.925967,17.1835937 483.84468,17.1482518 483.773996,17.077567 L483.243862,16.547433 C483.173177,16.4767482 483.137835,16.3954618 483.137835,16.3035714 C483.137835,16.2116811 483.173177,16.1303947 483.243862,16.0597098 L487.410714,11.8928571 L483.243862,7.72600446 C483.173177,7.65531959 483.137835,7.5740332 483.137835,7.48214286 C483.137835,7.39025252 483.173177,7.30896613 483.243862,7.23828125 L483.773996,6.70814732 C483.84468,6.63746244 483.925967,6.60212054 484.017857,6.60212054 C484.109747,6.60212054 484.191034,6.63746244 484.261719,6.70814732 L489.202567,11.6489955 C489.273252,11.7196804 489.308594,11.8009668 489.308594,11.8928571 Z" id="" fill="#6F777B" fill-rule="evenodd"></path>
                <path d="M339.308594,11.8928571 C339.308594,11.9847475 339.273252,12.0660339 339.202567,12.1367187 L334.261719,17.077567 C334.191034,17.1482518 334.109747,17.1835937 334.017857,17.1835937 C333.925967,17.1835937 333.84468,17.1482518 333.773996,17.077567 L333.243862,16.547433 C333.173177,16.4767482 333.137835,16.3954618 333.137835,16.3035714 C333.137835,16.2116811 333.173177,16.1303947 333.243862,16.0597098 L337.410714,11.8928571 L333.243862,7.72600446 C333.173177,7.65531959 333.137835,7.5740332 333.137835,7.48214286 C333.137835,7.39025252 333.173177,7.30896613 333.243862,7.23828125 L333.773996,6.70814732 C333.84468,6.63746244 333.925967,6.60212054 334.017857,6.60212054 C334.109747,6.60212054 334.191034,6.63746244 334.261719,6.70814732 L339.202567,11.6489955 C339.273252,11.7196804 339.308594,11.8009668 339.308594,11.8928571 Z" id="" fill="#6F777B" fill-rule="evenodd"></path>
            </g>
        </g>
    </g>
</svg>