<svg width="400px" height="300px" viewBox="0 0 400 300" version="1.1" xmlns="http://www.w3.org/2000/svg" xmlns:xlink="http://www.w3.org/1999/xlink">
    <!-- Generator: Sketch 46.2 (44496) - http://www.bohemiancoding.com/sketch -->
    <desc>Created with Sketch.</desc>
    <defs></defs>
    <g id="Page-1" stroke="none" stroke-width="1" fill="none" fill-rule="evenodd">
        <g id="A4">
            <g id="Image-TBC">
                <rect id="Rectangle" fill="#DEE0E2" x="0" y="0" width="400" height="300"></rect>
                <path d="M151.391602,141.696289 L154.082031,141.696289 L154.082031,155 L151.391602,155 L151.391602,141.696289 Z M163.489258,150.70459 L159.555664,145.787598 L159.555664,155 L156.865234,155 L156.865234,141.696289 L159.592773,141.696289 L163.526367,146.891602 L167.580566,141.696289 L170.196777,141.696289 L170.196777,155 L167.49707,155 L167.49707,145.787598 L163.582031,150.70459 L163.489258,150.70459 Z M180.309082,152.532227 L175.382812,152.532227 L174.631348,155 L171.773926,155 L176.125,141.696289 L179.659668,141.696289 L184.075684,155 L181.069824,155 L180.309082,152.532227 Z M176.106445,150.157227 L179.585449,150.157227 L177.859863,144.535156 L177.822754,144.535156 L176.106445,150.157227 Z M187.740234,148.385254 C187.740234,148.954267 187.81136,149.501625 187.953613,150.027344 C188.095867,150.553063 188.312336,151.016925 188.603027,151.418945 C188.893719,151.820966 189.264809,152.144123 189.716309,152.388428 C190.167808,152.632732 190.705889,152.754883 191.330566,152.754883 C191.930504,152.754883 192.42993,152.659018 192.828857,152.467285 C193.227785,152.275552 193.546304,152.03589 193.784424,151.748291 C194.022544,151.460692 194.189534,151.149904 194.2854,150.815918 C194.381267,150.481932 194.429199,150.17269 194.429199,149.888184 L194.429199,149.758301 L191.024414,149.758301 L191.024414,147.708008 L197.04541,147.708008 L197.04541,155 L194.688965,155 L194.688965,153.441406 C194.521972,153.701173 194.31478,153.937743 194.067383,154.151123 C193.819986,154.364503 193.541668,154.546956 193.232422,154.698486 C192.923176,154.850017 192.584556,154.969075 192.216553,155.055664 C191.84855,155.142253 191.457359,155.185547 191.042969,155.185547 C190.071935,155.185547 189.209151,155.009279 188.45459,154.656738 C187.700029,154.304197 187.064537,153.818688 186.548096,153.200195 C186.031654,152.581703 185.638917,151.858077 185.369873,151.029297 C185.100829,150.200517 184.966309,149.306808 184.966309,148.348145 C184.966309,147.395666 185.116291,146.503504 185.41626,145.671631 C185.716229,144.839758 186.142982,144.116133 186.696533,143.500732 C187.250084,142.885332 187.918046,142.399823 188.700439,142.044189 C189.482833,141.688556 190.359533,141.510742 191.330566,141.510742 C191.961429,141.510742 192.559812,141.583414 193.125732,141.72876 C193.691653,141.874106 194.208087,142.081297 194.675049,142.350342 C195.142011,142.619386 195.554848,142.94409 195.913574,143.324463 C196.2723,143.704836 196.562987,144.126951 196.785645,144.59082 L194.429199,145.91748 C194.286946,145.632974 194.119955,145.368572 193.928223,145.124268 C193.73649,144.879963 193.515382,144.669679 193.264893,144.493408 C193.014403,144.317138 192.728354,144.177979 192.406738,144.075928 C192.085122,143.973876 191.726402,143.922852 191.330566,143.922852 C190.705889,143.922852 190.167808,144.045002 189.716309,144.289307 C189.264809,144.533611 188.893719,144.856769 188.603027,145.258789 C188.312336,145.660809 188.095867,146.126218 187.953613,146.655029 C187.81136,147.183841 187.740234,147.729652 187.740234,148.29248 L187.740234,148.385254 Z M199.411133,141.696289 L208.373047,141.696289 L208.373047,144.13623 L202.101562,144.13623 L202.101562,146.96582 L207.881348,146.96582 L207.881348,149.396484 L202.101562,149.396484 L202.101562,152.569336 L208.734863,152.569336 L208.734863,155 L199.411133,155 L199.411133,141.696289 Z M213.169434,141.696289 L223.30957,141.696289 L223.30957,144.191895 L219.589355,144.191895 L219.589355,155 L216.889648,155 L216.889648,144.191895 L213.169434,144.191895 L213.169434,141.696289 Z M230.907715,141.696289 C231.464358,141.696289 231.980792,141.778238 232.457031,141.942139 C232.933271,142.106039 233.347654,142.339517 233.700195,142.642578 C234.052736,142.94564 234.327961,143.312091 234.525879,143.741943 C234.723797,144.171796 234.822754,144.649574 234.822754,145.175293 C234.822754,145.44743 234.784099,145.71647 234.706787,145.982422 C234.629476,146.248374 234.516602,146.497313 234.368164,146.729248 C234.219726,146.961183 234.040366,147.173013 233.830078,147.364746 C233.619791,147.556479 233.381675,147.714192 233.115723,147.837891 C233.332195,147.91211 233.584227,148.023437 233.871826,148.171875 C234.159425,148.320313 234.433104,148.524413 234.692871,148.78418 C234.952638,149.043947 235.1722,149.364012 235.351562,149.744385 C235.530925,150.124758 235.620605,150.583982 235.620605,151.12207 C235.620605,151.796227 235.49227,152.377602 235.235596,152.866211 C234.978921,153.35482 234.632571,153.756834 234.196533,154.072266 C233.760496,154.387697 233.250247,154.621174 232.665771,154.772705 C232.081296,154.924236 231.464359,155 230.814941,155 L224.98877,155 L224.98877,141.696289 L230.907715,141.696289 Z M232.865234,151.029297 C232.865234,150.670571 232.800294,150.376792 232.67041,150.147949 C232.540527,149.919107 232.368898,149.736654 232.155518,149.600586 C231.942138,149.464518 231.699383,149.370199 231.427246,149.317627 C231.155109,149.265055 230.876792,149.23877 230.592285,149.23877 L227.679199,149.23877 L227.679199,152.875488 L230.592285,152.875488 C230.876792,152.875488 231.155109,152.847657 231.427246,152.791992 C231.699383,152.736328 231.942138,152.637371 232.155518,152.495117 C232.368898,152.352864 232.540527,152.164226 232.67041,151.929199 C232.800294,151.694172 232.865234,151.394208 232.865234,151.029297 Z M232.11377,145.444336 C232.11377,144.937172 231.952964,144.541343 231.631348,144.256836 C231.309731,143.972329 230.790205,143.830078 230.072754,143.830078 L227.679199,143.830078 L227.679199,146.96582 L230.072754,146.96582 C230.777836,146.96582 231.294269,146.8313 231.62207,146.562256 C231.949871,146.293212 232.11377,145.920575 232.11377,145.444336 Z M236.975098,148.348145 C236.975098,147.395666 237.118895,146.503504 237.406494,145.671631 C237.694093,144.839758 238.106931,144.116133 238.64502,143.500732 C239.183108,142.885332 239.835608,142.399823 240.602539,142.044189 C241.36947,141.688556 242.232254,141.510742 243.190918,141.510742 C243.88363,141.510742 244.525306,141.600422 245.115967,141.779785 C245.706627,141.959148 246.238523,142.212726 246.71167,142.540527 C247.184817,142.868328 247.59147,143.264158 247.931641,143.728027 C248.271812,144.191897 248.540852,144.711423 248.73877,145.286621 L246.150391,146.149414 C246.076172,145.902017 245.95866,145.646893 245.797852,145.384033 C245.637043,145.121174 245.432944,144.883058 245.185547,144.669678 C244.93815,144.456298 244.649009,144.281576 244.318115,144.145508 C243.987222,144.009439 243.617678,143.941406 243.209473,143.941406 C242.597165,143.941406 242.073,144.066649 241.636963,144.317139 C241.200926,144.567628 240.843751,144.898517 240.56543,145.309814 C240.287108,145.721112 240.081462,146.188067 239.948486,146.710693 C239.81551,147.23332 239.749023,147.766762 239.749023,148.311035 L239.749023,148.385254 C239.749023,148.935712 239.81551,149.472247 239.948486,149.994873 C240.081462,150.517499 240.287108,150.982908 240.56543,151.391113 C240.843751,151.799318 241.200926,152.128661 241.636963,152.37915 C242.073,152.62964 242.597165,152.754883 243.209473,152.754883 C243.617678,152.754883 243.987222,152.68685 244.318115,152.550781 C244.649009,152.414713 244.93815,152.239991 245.185547,152.026611 C245.432944,151.813231 245.637043,151.576661 245.797852,151.316895 C245.95866,151.057128 246.076172,150.803549 246.150391,150.556152 L248.73877,151.409668 C248.540852,151.984866 248.271812,152.504392 247.931641,152.968262 C247.59147,153.432131 247.184817,153.829507 246.71167,154.1604 C246.238523,154.491294 245.706627,154.744872 245.115967,154.921143 C244.525306,155.097413 243.88363,155.185547 243.190918,155.185547 C242.232254,155.185547 241.36947,155.009279 240.602539,154.656738 C239.835608,154.304197 239.183108,153.818688 238.64502,153.200195 C238.106931,152.581703 237.694093,151.858077 237.406494,151.029297 C237.118895,150.200517 236.975098,149.306808 236.975098,148.348145 Z" id="IMAGE-TBC" fill="#0B0C0C"></path>
            </g>
        </g>
    </g>
</svg>