<svg width="21px" height="36px" viewBox="0 0 21 36" version="1.1" xmlns="http://www.w3.org/2000/svg" xmlns:xlink="http://www.w3.org/1999/xlink">
    <desc>Created by a designer.</desc>
    <defs></defs>
    <g id="Symbols" stroke="none" stroke-width="1" fill="none" fill-rule="evenodd">
        <g id="Previous-icon" fill="#005EA5">
            <path d="M20.6391753,2.16432866 C20.8797263,2.40481082 21,2.68136116 21,2.99398798 C21,3.30661479 20.8797263,3.58316513 20.6391753,3.82364729 L6.45876289,18 L20.6391753,32.1763527 C20.8797263,32.4168349 21,32.6933852 21,33.006012 C21,33.3186388 20.8797263,33.5951892 20.6391753,33.8356713 L18.8350515,35.6392786 C18.5945005,35.8797607 18.317871,36 18.0051546,36 C17.6924383,36 17.4158088,35.8797607 17.1752577,35.6392786 L0.360824742,18.8296593 C0.120273711,18.5891772 0,18.3126268 0,18 C0,17.6873732 0.120273711,17.4108228 0.360824742,17.1703407 L17.1752577,0.360721443 C17.4158088,0.120239279 17.6924383,0 18.0051546,0 C18.317871,0 18.5945005,0.120239279 18.8350515,0.360721443 L20.6391753,2.16432866 Z"></path>
        </g>
    </g>
</svg>