<svg width="630px" height="33px" viewBox="0 0 630 33" version="1.1" xmlns="http://www.w3.org/2000/svg" xmlns:xlink="http://www.w3.org/1999/xlink">
    <!-- Generator: Sketch 46.2 (44496) - http://www.bohemiancoding.com/sketch -->
    <desc>Created with Sketch.</desc>
    <defs></defs>
    <g id="Page-1" stroke="none" stroke-width="1" fill="none" fill-rule="evenodd">
        <g id="alpha-banner" fill-rule="nonzero">
            <rect id="horizontal-rule" fill="#BFC1C3" x="0" y="32" width="630" height="1"></rect>
            <path d="M76.3359375,4.796875 L84.015625,4.796875 L84.015625,6.03125 L80.8671875,6.03125 L80.8671875,16 L79.484375,16 L79.484375,6.03125 L76.3359375,6.03125 L76.3359375,4.796875 Z M85.5546875,4.796875 L86.8671875,4.796875 L86.8671875,8.9296875 C87.1380222,8.55989398 87.4726543,8.28906336 87.8710938,8.1171875 C88.2695332,7.94531164 88.7135392,7.859375 89.203125,7.859375 C89.6458355,7.859375 90.0338525,7.93229094 90.3671875,8.078125 C90.7005225,8.22395906 90.9791655,8.42187375 91.203125,8.671875 C91.4270845,8.92187625 91.5950515,9.21093586 91.7070312,9.5390625 C91.819011,9.86718914 91.875,10.2135398 91.875,10.578125 L91.875,16 L90.5625,16 L90.5625,10.9921875 C90.5625,10.6432274 90.5195317,10.3450533 90.4335938,10.0976562 C90.3476558,9.85025918 90.2304695,9.64974035 90.0820312,9.49609375 C89.933593,9.34244715 89.7591156,9.2304691 89.5585938,9.16015625 C89.3580719,9.0898434 89.1432303,9.0546875 88.9140625,9.0546875 C88.6640613,9.0546875 88.4166679,9.10025996 88.171875,9.19140625 C87.9270821,9.28255254 87.7083343,9.41926992 87.515625,9.6015625 C87.3229157,9.78385508 87.1666673,10.0130195 87.046875,10.2890625 C86.9270827,10.5651055 86.8671875,10.8906231 86.8671875,11.265625 L86.8671875,16 L85.5546875,16 L85.5546875,4.796875 Z M95.5234375,16 L94.2109375,16 L94.2109375,8.015625 L95.5234375,8.015625 L95.5234375,16 Z M93.96875,5.7109375 C93.96875,5.58593688 93.9934893,5.46875055 94.0429688,5.359375 C94.0924482,5.24999945 94.1575517,5.15364625 94.2382812,5.0703125 C94.3190108,4.98697875 94.415364,4.92057316 94.5273438,4.87109375 C94.6393235,4.82161434 94.7578119,4.796875 94.8828125,4.796875 C95.0078131,4.796875 95.1249995,4.82161434 95.234375,4.87109375 C95.3437505,4.92057316 95.4388017,4.98697875 95.5195312,5.0703125 C95.6002608,5.15364625 95.6653643,5.24999945 95.7148438,5.359375 C95.7643232,5.46875055 95.7890625,5.58593688 95.7890625,5.7109375 C95.7890625,5.83593812 95.7643232,5.95442652 95.7148438,6.06640625 C95.6653643,6.17838598 95.6002608,6.27473918 95.5195312,6.35546875 C95.4388017,6.43619832 95.3437505,6.50130184 95.234375,6.55078125 C95.1249995,6.60026066 95.0078131,6.625 94.8828125,6.625 C94.7578119,6.625 94.6393235,6.60026066 94.5273438,6.55078125 C94.415364,6.50130184 94.3190108,6.43619832 94.2382812,6.35546875 C94.1575517,6.27473918 94.0924482,6.17838598 94.0429688,6.06640625 C93.9934893,5.95442652 93.96875,5.83593812 93.96875,5.7109375 Z M103.265625,13.7890625 C103.265625,14.1640644 103.183595,14.4986964 103.019531,14.7929688 C102.855468,15.0872411 102.638022,15.3359365 102.367188,15.5390625 C102.096353,15.7421885 101.785158,15.8958328 101.433594,16 C101.082029,16.1041672 100.721356,16.15625 100.351562,16.15625 C99.7682262,16.15625 99.2070339,16.0559906 98.6679688,15.8554688 C98.1289036,15.6549469 97.6510437,15.3671894 97.234375,14.9921875 L97.953125,14.0625 C98.0781256,14.1718755 98.2226554,14.2864577 98.3867188,14.40625 C98.5507821,14.5260423 98.734374,14.6367182 98.9375,14.7382812 C99.140626,14.8398443 99.3593738,14.9231768 99.59375,14.9882812 C99.8281262,15.0533857 100.07552,15.0859375 100.335938,15.0859375 C100.54948,15.0859375 100.753905,15.058594 100.949219,15.0039062 C101.144532,14.9492185 101.315103,14.8684901 101.460938,14.7617188 C101.606772,14.6549474 101.722656,14.5273445 101.808594,14.3789062 C101.894532,14.230468 101.9375,14.0625009 101.9375,13.875 C101.9375,13.6666656 101.891928,13.4921882 101.800781,13.3515625 C101.709635,13.2109368 101.585938,13.0911463 101.429688,12.9921875 C101.273437,12.8932287 101.091147,12.807292 100.882812,12.734375 C100.674478,12.661458 100.45573,12.588542 100.226562,12.515625 L99.7265625,12.3515625 C99.4453111,12.257812 99.1744805,12.1510423 98.9140625,12.03125 C98.6536445,11.9114577 98.4231781,11.7643238 98.2226562,11.5898438 C98.0221344,11.4153637 97.8632818,11.2083345 97.7460938,10.96875 C97.6289057,10.7291655 97.5703125,10.44271 97.5703125,10.109375 C97.5703125,9.83854031 97.6276036,9.56901176 97.7421875,9.30078125 C97.8567714,9.03255074 98.0325509,8.79166773 98.2695312,8.578125 C98.5065116,8.36458227 98.8072898,8.19140691 99.171875,8.05859375 C99.5364602,7.92578059 99.9661434,7.859375 100.460938,7.859375 C101.007815,7.859375 101.514321,7.95051992 101.980469,8.1328125 C102.446617,8.31510508 102.841144,8.54166531 103.164062,8.8125 L102.476562,9.7578125 C102.361979,9.64843695 102.226563,9.54427133 102.070312,9.4453125 C101.914062,9.34635367 101.747397,9.25911496 101.570312,9.18359375 C101.393228,9.10807254 101.208334,9.04687523 101.015625,9 C100.822916,8.95312477 100.632813,8.9296875 100.445312,8.9296875 C100.158853,8.9296875 99.9166677,8.96223926 99.71875,9.02734375 C99.5208323,9.09244824 99.3619798,9.17708281 99.2421875,9.28125 C99.1223952,9.38541719 99.0351565,9.50260352 98.9804688,9.6328125 C98.925781,9.76302148 98.8984375,9.89062438 98.8984375,10.015625 C98.8984375,10.1979176 98.9374996,10.3502598 99.015625,10.4726562 C99.0937504,10.5950527 99.1966139,10.7005204 99.3242188,10.7890625 C99.4518236,10.8776046 99.5976554,10.9531247 99.7617188,11.015625 C99.9257821,11.0781253 100.096353,11.1406247 100.273438,11.203125 L100.929688,11.421875 C101.242189,11.5260422 101.528645,11.6367182 101.789062,11.7539062 C102.04948,11.8710943 102.278645,12.0052076 102.476562,12.15625 C102.726564,12.3541677 102.920572,12.583332 103.058594,12.84375 C103.196615,13.104168 103.265625,13.419269 103.265625,13.7890625 Z M109.796875,16 L108.484375,16 L108.484375,8.015625 L109.796875,8.015625 L109.796875,16 Z M108.242188,5.7109375 C108.242188,5.58593688 108.266927,5.46875055 108.316406,5.359375 C108.365886,5.24999945 108.430989,5.15364625 108.511719,5.0703125 C108.592448,4.98697875 108.688802,4.92057316 108.800781,4.87109375 C108.912761,4.82161434 109.031249,4.796875 109.15625,4.796875 C109.281251,4.796875 109.398437,4.82161434 109.507812,4.87109375 C109.617188,4.92057316 109.712239,4.98697875 109.792969,5.0703125 C109.873698,5.15364625 109.938802,5.24999945 109.988281,5.359375 C110.037761,5.46875055 110.0625,5.58593688 110.0625,5.7109375 C110.0625,5.83593812 110.037761,5.95442652 109.988281,6.06640625 C109.938802,6.17838598 109.873698,6.27473918 109.792969,6.35546875 C109.712239,6.43619832 109.617188,6.50130184 109.507812,6.55078125 C109.398437,6.60026066 109.281251,6.625 109.15625,6.625 C109.031249,6.625 108.912761,6.60026066 108.800781,6.55078125 C108.688802,6.50130184 108.592448,6.43619832 108.511719,6.35546875 C108.430989,6.27473918 108.365886,6.17838598 108.316406,6.06640625 C108.266927,5.95442652 108.242188,5.83593812 108.242188,5.7109375 Z M117.539062,13.7890625 C117.539062,14.1640644 117.457032,14.4986964 117.292969,14.7929688 C117.128905,15.0872411 116.91146,15.3359365 116.640625,15.5390625 C116.36979,15.7421885 116.058596,15.8958328 115.707031,16 C115.355467,16.1041672 114.994794,16.15625 114.625,16.15625 C114.041664,16.15625 113.480471,16.0559906 112.941406,15.8554688 C112.402341,15.6549469 111.924481,15.3671894 111.507812,14.9921875 L112.226562,14.0625 C112.351563,14.1718755 112.496093,14.2864577 112.660156,14.40625 C112.82422,14.5260423 113.007811,14.6367182 113.210938,14.7382812 C113.414064,14.8398443 113.632811,14.9231768 113.867188,14.9882812 C114.101564,15.0533857 114.348957,15.0859375 114.609375,15.0859375 C114.822918,15.0859375 115.027343,15.058594 115.222656,15.0039062 C115.41797,14.9492185 115.588541,14.8684901 115.734375,14.7617188 C115.880209,14.6549474 115.996093,14.5273445 116.082031,14.3789062 C116.167969,14.230468 116.210938,14.0625009 116.210938,13.875 C116.210938,13.6666656 116.165365,13.4921882 116.074219,13.3515625 C115.983072,13.2109368 115.859376,13.0911463 115.703125,12.9921875 C115.546874,12.8932287 115.364584,12.807292 115.15625,12.734375 C114.947916,12.661458 114.729168,12.588542 114.5,12.515625 L114,12.3515625 C113.718749,12.257812 113.447918,12.1510423 113.1875,12.03125 C112.927082,11.9114577 112.696616,11.7643238 112.496094,11.5898438 C112.295572,11.4153637 112.136719,11.2083345 112.019531,10.96875 C111.902343,10.7291655 111.84375,10.44271 111.84375,10.109375 C111.84375,9.83854031 111.901041,9.56901176 112.015625,9.30078125 C112.130209,9.03255074 112.305988,8.79166773 112.542969,8.578125 C112.779949,8.36458227 113.080727,8.19140691 113.445312,8.05859375 C113.809898,7.92578059 114.239581,7.859375 114.734375,7.859375 C115.281253,7.859375 115.787758,7.95051992 116.253906,8.1328125 C116.720054,8.31510508 117.114582,8.54166531 117.4375,8.8125 L116.75,9.7578125 C116.635416,9.64843695 116.500001,9.54427133 116.34375,9.4453125 C116.187499,9.34635367 116.020834,9.25911496 115.84375,9.18359375 C115.666666,9.10807254 115.481772,9.04687523 115.289062,9 C115.096353,8.95312477 114.906251,8.9296875 114.71875,8.9296875 C114.43229,8.9296875 114.190105,8.96223926 113.992188,9.02734375 C113.79427,9.09244824 113.635417,9.17708281 113.515625,9.28125 C113.395833,9.38541719 113.308594,9.50260352 113.253906,9.6328125 C113.199218,9.76302148 113.171875,9.89062438 113.171875,10.015625 C113.171875,10.1979176 113.210937,10.3502598 113.289062,10.4726562 C113.367188,10.5950527 113.470051,10.7005204 113.597656,10.7890625 C113.725261,10.8776046 113.871093,10.9531247 114.035156,11.015625 C114.19922,11.0781253 114.369791,11.1406247 114.546875,11.203125 L115.203125,11.421875 C115.515627,11.5260422 115.802082,11.6367182 116.0625,11.7539062 C116.322918,11.8710943 116.552082,12.0052076 116.75,12.15625 C117.000001,12.3541677 117.19401,12.583332 117.332031,12.84375 C117.470053,13.104168 117.539062,13.419269 117.539062,13.7890625 Z M127.296875,15.203125 C127.062499,15.4739597 126.746096,15.7005199 126.347656,15.8828125 C125.949217,16.0651051 125.481774,16.15625 124.945312,16.15625 C124.549477,16.15625 124.182293,16.100261 123.84375,15.9882812 C123.505207,15.8763015 123.210939,15.7161469 122.960938,15.5078125 C122.710936,15.2994781 122.515626,15.0468765 122.375,14.75 C122.234374,14.4531235 122.164062,14.1171894 122.164062,13.7421875 C122.164062,13.4296859 122.214843,13.1445325 122.316406,12.8867188 C122.417969,12.628905 122.561197,12.4036468 122.746094,12.2109375 C122.930991,12.0182282 123.153645,11.8606777 123.414062,11.7382812 C123.67448,11.6158848 123.966144,11.5312502 124.289062,11.484375 L127.109375,11.1015625 L127.109375,10.59375 C127.109375,10.2916652 127.0625,10.0377614 126.96875,9.83203125 C126.875,9.62630105 126.748699,9.46354227 126.589844,9.34375 C126.430989,9.22395773 126.243491,9.13802109 126.027344,9.0859375 C125.811197,9.03385391 125.578126,9.0078125 125.328125,9.0078125 C124.880206,9.0078125 124.462242,9.07031188 124.074219,9.1953125 C123.686196,9.32031313 123.335939,9.466145 123.023438,9.6328125 L122.53125,8.59375 C122.989586,8.33333203 123.47005,8.14583391 123.972656,8.03125 C124.475263,7.91666609 124.971352,7.859375 125.460938,7.859375 C126.434901,7.859375 127.171873,8.07942488 127.671875,8.51953125 C128.171877,8.95963762 128.421875,9.60155828 128.421875,10.4453125 L128.421875,14.125 C128.421875,14.3906263 128.473958,14.6132804 128.578125,14.7929688 C128.682292,14.9726571 128.848957,15.1145828 129.078125,15.21875 L128.335938,16.15625 C128.085936,16.0937497 127.871095,15.9830737 127.691406,15.8242188 C127.511718,15.6653638 127.385417,15.4739595 127.3125,15.25 L127.296875,15.203125 Z M124.960938,12.4453125 C124.742186,12.4765627 124.54297,12.520833 124.363281,12.578125 C124.183593,12.635417 124.031251,12.7122391 123.90625,12.8085938 C123.781249,12.9049484 123.683594,13.0234368 123.613281,13.1640625 C123.542968,13.3046882 123.507812,13.4765615 123.507812,13.6796875 C123.507812,13.9140637 123.552083,14.1223949 123.640625,14.3046875 C123.729167,14.4869801 123.848958,14.6406244 124,14.765625 C124.151042,14.8906256 124.326822,14.9856768 124.527344,15.0507812 C124.727866,15.1158857 124.937499,15.1484375 125.15625,15.1484375 C125.401043,15.1484375 125.640624,15.1145837 125.875,15.046875 C126.109376,14.9791663 126.317707,14.8815111 126.5,14.7539062 C126.682293,14.6263014 126.829427,14.4713551 126.941406,14.2890625 C127.053386,14.1067699 127.109375,13.8984387 127.109375,13.6640625 L127.109375,12.125 L124.960938,12.4453125 Z M134.007812,8.015625 L135.320312,8.015625 L135.320312,8.9296875 C135.591147,8.55989398 135.925779,8.28906336 136.324219,8.1171875 C136.722658,7.94531164 137.166664,7.859375 137.65625,7.859375 C138.098961,7.859375 138.486977,7.93229094 138.820312,8.078125 C139.153648,8.22395906 139.432291,8.42187375 139.65625,8.671875 C139.880209,8.92187625 140.048177,9.21093586 140.160156,9.5390625 C140.272136,9.86718914 140.328125,10.2135398 140.328125,10.578125 L140.328125,16 L139.015625,16 L139.015625,10.9921875 C139.015625,10.6432274 138.972657,10.3450533 138.886719,10.0976562 C138.800781,9.85025918 138.683594,9.64974035 138.535156,9.49609375 C138.386718,9.34244715 138.212241,9.2304691 138.011719,9.16015625 C137.811197,9.0898434 137.596355,9.0546875 137.367188,9.0546875 C137.117186,9.0546875 136.871095,9.10025996 136.628906,9.19140625 C136.386718,9.28255254 136.16797,9.41926992 135.972656,9.6015625 C135.777343,9.78385508 135.619792,10.0130195 135.5,10.2890625 C135.380208,10.5651055 135.320312,10.8906231 135.320312,11.265625 L135.320312,16 L134.007812,16 L134.007812,8.015625 Z M143.554688,12.4140625 C143.580729,12.7890644 143.656249,13.1354151 143.78125,13.453125 C143.906251,13.7708349 144.076822,14.0455718 144.292969,14.2773438 C144.509116,14.5091157 144.764321,14.6888014 145.058594,14.8164062 C145.352866,14.9440111 145.679686,15.0078125 146.039062,15.0078125 C146.481773,15.0078125 146.871092,14.9335945 147.207031,14.7851562 C147.54297,14.636718 147.851561,14.450522 148.132812,14.2265625 L148.804688,15.171875 C148.445311,15.4583348 148.02995,15.6940095 147.558594,15.8789062 C147.087237,16.063803 146.559899,16.15625 145.976562,16.15625 C145.398435,16.15625 144.875002,16.0533864 144.40625,15.8476562 C143.937498,15.6419261 143.537762,15.3554706 143.207031,14.9882812 C142.8763,14.6210919 142.622397,14.1835963 142.445312,13.6757812 C142.268228,13.1679662 142.179688,12.6145863 142.179688,12.015625 C142.179688,11.406247 142.266926,10.8476588 142.441406,10.3398438 C142.615886,9.83202871 142.861978,9.39453309 143.179688,9.02734375 C143.497397,8.66015441 143.877602,8.37369895 144.320312,8.16796875 C144.763023,7.96223855 145.255206,7.859375 145.796875,7.859375 C146.322919,7.859375 146.796873,7.96223855 147.21875,8.16796875 C147.640627,8.37369895 147.999999,8.66015441 148.296875,9.02734375 C148.593751,9.39453309 148.821614,9.83202871 148.980469,10.3398438 C149.139324,10.8476588 149.21875,11.4010387 149.21875,12 L149.21875,12.4140625 L143.554688,12.4140625 Z M145.75,9.0078125 C145.416665,9.0078125 145.119793,9.07291602 144.859375,9.203125 C144.598957,9.33333398 144.376303,9.50781141 144.191406,9.7265625 C144.006509,9.94531359 143.860678,10.1966132 143.753906,10.4804688 C143.647135,10.7643243 143.585938,11.0572902 143.570312,11.359375 L147.796875,11.359375 C147.786458,11.0520818 147.733073,10.7565118 147.636719,10.4726562 C147.540364,10.1888007 147.404949,9.93880316 147.230469,9.72265625 C147.055989,9.50650934 146.845053,9.33333398 146.597656,9.203125 C146.350259,9.07291602 146.06771,9.0078125 145.75,9.0078125 Z M157.953125,14.4453125 L159.398438,8.015625 L160.789062,8.015625 L158.835938,16 L157.15625,16 L155.539062,9.6015625 L153.890625,16 L152.273438,16 L150.335938,8.015625 L151.75,8.015625 L153.140625,14.4453125 L154.820312,8.015625 L156.304688,8.015625 L157.953125,14.4453125 Z M171.03125,13.7890625 C171.03125,14.1640644 170.94922,14.4986964 170.785156,14.7929688 C170.621093,15.0872411 170.403647,15.3359365 170.132812,15.5390625 C169.861978,15.7421885 169.550783,15.8958328 169.199219,16 C168.847654,16.1041672 168.486981,16.15625 168.117188,16.15625 C167.533851,16.15625 166.972659,16.0559906 166.433594,15.8554688 C165.894529,15.6549469 165.416669,15.3671894 165,14.9921875 L165.71875,14.0625 C165.843751,14.1718755 165.98828,14.2864577 166.152344,14.40625 C166.316407,14.5260423 166.499999,14.6367182 166.703125,14.7382812 C166.906251,14.8398443 167.124999,14.9231768 167.359375,14.9882812 C167.593751,15.0533857 167.841145,15.0859375 168.101562,15.0859375 C168.315105,15.0859375 168.51953,15.058594 168.714844,15.0039062 C168.910157,14.9492185 169.080728,14.8684901 169.226562,14.7617188 C169.372397,14.6549474 169.488281,14.5273445 169.574219,14.3789062 C169.660157,14.230468 169.703125,14.0625009 169.703125,13.875 C169.703125,13.6666656 169.657553,13.4921882 169.566406,13.3515625 C169.47526,13.2109368 169.351563,13.0911463 169.195312,12.9921875 C169.039062,12.8932287 168.856772,12.807292 168.648438,12.734375 C168.440103,12.661458 168.221355,12.588542 167.992188,12.515625 L167.492188,12.3515625 C167.210936,12.257812 166.940105,12.1510423 166.679688,12.03125 C166.41927,11.9114577 166.188803,11.7643238 165.988281,11.5898438 C165.787759,11.4153637 165.628907,11.2083345 165.511719,10.96875 C165.394531,10.7291655 165.335938,10.44271 165.335938,10.109375 C165.335938,9.83854031 165.393229,9.56901176 165.507812,9.30078125 C165.622396,9.03255074 165.798176,8.79166773 166.035156,8.578125 C166.272137,8.36458227 166.572915,8.19140691 166.9375,8.05859375 C167.302085,7.92578059 167.731768,7.859375 168.226562,7.859375 C168.77344,7.859375 169.279946,7.95051992 169.746094,8.1328125 C170.212242,8.31510508 170.606769,8.54166531 170.929688,8.8125 L170.242188,9.7578125 C170.127604,9.64843695 169.992188,9.54427133 169.835938,9.4453125 C169.679687,9.34635367 169.513022,9.25911496 169.335938,9.18359375 C169.158853,9.10807254 168.973959,9.04687523 168.78125,9 C168.588541,8.95312477 168.398438,8.9296875 168.210938,8.9296875 C167.924478,8.9296875 167.682293,8.96223926 167.484375,9.02734375 C167.286457,9.09244824 167.127605,9.17708281 167.007812,9.28125 C166.88802,9.38541719 166.800782,9.50260352 166.746094,9.6328125 C166.691406,9.76302148 166.664062,9.89062438 166.664062,10.015625 C166.664062,10.1979176 166.703125,10.3502598 166.78125,10.4726562 C166.859375,10.5950527 166.962239,10.7005204 167.089844,10.7890625 C167.217449,10.8776046 167.36328,10.9531247 167.527344,11.015625 C167.691407,11.0781253 167.861978,11.1406247 168.039062,11.203125 L168.695312,11.421875 C169.007814,11.5260422 169.29427,11.6367182 169.554688,11.7539062 C169.815105,11.8710943 170.04427,12.0052076 170.242188,12.15625 C170.492189,12.3541677 170.686197,12.583332 170.824219,12.84375 C170.96224,13.104168 171.03125,13.419269 171.03125,13.7890625 Z M173.9375,12.4140625 C173.963542,12.7890644 174.039062,13.1354151 174.164062,13.453125 C174.289063,13.7708349 174.459634,14.0455718 174.675781,14.2773438 C174.891928,14.5091157 175.147134,14.6888014 175.441406,14.8164062 C175.735679,14.9440111 176.062498,15.0078125 176.421875,15.0078125 C176.864586,15.0078125 177.253905,14.9335945 177.589844,14.7851562 C177.925783,14.636718 178.234374,14.450522 178.515625,14.2265625 L179.1875,15.171875 C178.828123,15.4583348 178.412763,15.6940095 177.941406,15.8789062 C177.47005,16.063803 176.942711,16.15625 176.359375,16.15625 C175.781247,16.15625 175.257815,16.0533864 174.789062,15.8476562 C174.32031,15.6419261 173.920575,15.3554706 173.589844,14.9882812 C173.259113,14.6210919 173.005209,14.1835963 172.828125,13.6757812 C172.651041,13.1679662 172.5625,12.6145863 172.5625,12.015625 C172.5625,11.406247 172.649739,10.8476588 172.824219,10.3398438 C172.998699,9.83202871 173.24479,9.39453309 173.5625,9.02734375 C173.88021,8.66015441 174.260414,8.37369895 174.703125,8.16796875 C175.145836,7.96223855 175.638018,7.859375 176.179688,7.859375 C176.705732,7.859375 177.179685,7.96223855 177.601562,8.16796875 C178.02344,8.37369895 178.382811,8.66015441 178.679688,9.02734375 C178.976564,9.39453309 179.204426,9.83202871 179.363281,10.3398438 C179.522136,10.8476588 179.601562,11.4010387 179.601562,12 L179.601562,12.4140625 L173.9375,12.4140625 Z M176.132812,9.0078125 C175.799477,9.0078125 175.502605,9.07291602 175.242188,9.203125 C174.98177,9.33333398 174.759116,9.50781141 174.574219,9.7265625 C174.389322,9.94531359 174.24349,10.1966132 174.136719,10.4804688 C174.029947,10.7643243 173.96875,11.0572902 173.953125,11.359375 L178.179688,11.359375 C178.169271,11.0520818 178.115886,10.7565118 178.019531,10.4726562 C177.923177,10.1888007 177.787761,9.93880316 177.613281,9.72265625 C177.438801,9.50650934 177.227866,9.33333398 176.980469,9.203125 C176.733072,9.07291602 176.450522,9.0078125 176.132812,9.0078125 Z M185.507812,9.1875 L185.296875,9.1875 C184.958332,9.1875 184.635418,9.22656211 184.328125,9.3046875 C184.020832,9.38281289 183.750001,9.52343648 183.515625,9.7265625 C183.281249,9.92968852 183.093751,10.2070295 182.953125,10.5585938 C182.812499,10.910158 182.742188,11.3593723 182.742188,11.90625 L182.742188,16 L181.429688,16 L181.429688,8.015625 L182.742188,8.015625 L182.742188,9.28125 C182.841146,9.04687383 182.973957,8.84114672 183.140625,8.6640625 C183.307292,8.48697828 183.496093,8.33984434 183.707031,8.22265625 C183.91797,8.10546816 184.14453,8.01822945 184.386719,7.9609375 C184.628907,7.90364555 184.874999,7.875 185.125,7.875 L185.507812,7.875 L185.507812,9.1875 Z M188.757812,16 L186.226562,8.015625 L187.71875,8.015625 L189.632812,14.78125 L191.539062,8.015625 L193.03125,8.015625 L190.5,16 L188.757812,16 Z M195.929688,16 L194.617188,16 L194.617188,8.015625 L195.929688,8.015625 L195.929688,16 Z M194.375,5.7109375 C194.375,5.58593688 194.399739,5.46875055 194.449219,5.359375 C194.498698,5.24999945 194.563802,5.15364625 194.644531,5.0703125 C194.725261,4.98697875 194.821614,4.92057316 194.933594,4.87109375 C195.045573,4.82161434 195.164062,4.796875 195.289062,4.796875 C195.414063,4.796875 195.531249,4.82161434 195.640625,4.87109375 C195.750001,4.92057316 195.845052,4.98697875 195.925781,5.0703125 C196.006511,5.15364625 196.071614,5.24999945 196.121094,5.359375 C196.170573,5.46875055 196.195312,5.58593688 196.195312,5.7109375 C196.195312,5.83593812 196.170573,5.95442652 196.121094,6.06640625 C196.071614,6.17838598 196.006511,6.27473918 195.925781,6.35546875 C195.845052,6.43619832 195.750001,6.50130184 195.640625,6.55078125 C195.531249,6.60026066 195.414063,6.625 195.289062,6.625 C195.164062,6.625 195.045573,6.60026066 194.933594,6.55078125 C194.821614,6.50130184 194.725261,6.43619832 194.644531,6.35546875 C194.563802,6.27473918 194.498698,6.17838598 194.449219,6.06640625 C194.399739,5.95442652 194.375,5.83593812 194.375,5.7109375 Z M199.203125,12.046875 C199.203125,12.4479187 199.252604,12.8281232 199.351562,13.1875 C199.450521,13.5468768 199.596353,13.8606757 199.789062,14.1289062 C199.981772,14.3971368 200.222655,14.6106763 200.511719,14.7695312 C200.800783,14.9283862 201.138019,15.0078125 201.523438,15.0078125 C201.773439,15.0078125 202.003905,14.9726566 202.214844,14.9023438 C202.425782,14.8320309 202.615885,14.7369798 202.785156,14.6171875 C202.954428,14.4973952 203.105468,14.3554696 203.238281,14.1914062 C203.371094,14.0273429 203.486979,13.8515634 203.585938,13.6640625 L204.679687,14.2890625 C204.54427,14.5703139 204.371095,14.8268218 204.160156,15.0585938 C203.949218,15.2903657 203.708335,15.4869784 203.4375,15.6484375 C203.166665,15.8098966 202.869793,15.9348954 202.546875,16.0234375 C202.223957,16.1119796 201.882814,16.15625 201.523438,16.15625 C200.971351,16.15625 200.470054,16.0533864 200.019531,15.8476562 C199.569008,15.6419261 199.182293,15.3554706 198.859375,14.9882812 C198.536457,14.6210919 198.286459,14.1848984 198.109375,13.6796875 C197.932291,13.1744766 197.84375,12.6197947 197.84375,12.015625 C197.84375,11.406247 197.932291,10.8476588 198.109375,10.3398438 C198.286459,9.83202871 198.536457,9.39453309 198.859375,9.02734375 C199.182293,8.66015441 199.569008,8.37369895 200.019531,8.16796875 C200.470054,7.96223855 200.971351,7.859375 201.523438,7.859375 C201.882814,7.859375 202.223957,7.90364539 202.546875,7.9921875 C202.869793,8.08072961 203.166665,8.20572836 203.4375,8.3671875 C203.708335,8.52864664 203.949218,8.72525926 204.160156,8.95703125 C204.371095,9.18880324 204.54427,9.44531109 204.679687,9.7265625 L203.585938,10.3515625 C203.486979,10.1640616 203.371094,9.98828207 203.238281,9.82421875 C203.105468,9.66015543 202.954428,9.51822977 202.785156,9.3984375 C202.615885,9.27864523 202.425782,9.1835941 202.214844,9.11328125 C202.003905,9.0429684 201.773439,9.0078125 201.523438,9.0078125 C201.138019,9.0078125 200.800783,9.08723879 200.511719,9.24609375 C200.222655,9.40494871 199.981772,9.61848824 199.789062,9.88671875 C199.596353,10.1549493 199.450521,10.4687482 199.351562,10.828125 C199.252604,11.1875018 199.203125,11.5677063 199.203125,11.96875 L199.203125,12.046875 Z M207.398438,12.4140625 C207.424479,12.7890644 207.499999,13.1354151 207.625,13.453125 C207.750001,13.7708349 207.920572,14.0455718 208.136719,14.2773438 C208.352866,14.5091157 208.608071,14.6888014 208.902344,14.8164062 C209.196616,14.9440111 209.523436,15.0078125 209.882812,15.0078125 C210.325523,15.0078125 210.714842,14.9335945 211.050781,14.7851562 C211.38672,14.636718 211.695311,14.450522 211.976562,14.2265625 L212.648438,15.171875 C212.289061,15.4583348 211.8737,15.6940095 211.402344,15.8789062 C210.930987,16.063803 210.403649,16.15625 209.820312,16.15625 C209.242185,16.15625 208.718752,16.0533864 208.25,15.8476562 C207.781248,15.6419261 207.381512,15.3554706 207.050781,14.9882812 C206.72005,14.6210919 206.466147,14.1835963 206.289062,13.6757812 C206.111978,13.1679662 206.023438,12.6145863 206.023438,12.015625 C206.023438,11.406247 206.110676,10.8476588 206.285156,10.3398438 C206.459636,9.83202871 206.705728,9.39453309 207.023438,9.02734375 C207.341147,8.66015441 207.721352,8.37369895 208.164062,8.16796875 C208.606773,7.96223855 209.098956,7.859375 209.640625,7.859375 C210.166669,7.859375 210.640623,7.96223855 211.0625,8.16796875 C211.484377,8.37369895 211.843749,8.66015441 212.140625,9.02734375 C212.437501,9.39453309 212.665364,9.83202871 212.824219,10.3398438 C212.983074,10.8476588 213.0625,11.4010387 213.0625,12 L213.0625,12.4140625 L207.398438,12.4140625 Z M209.59375,9.0078125 C209.260415,9.0078125 208.963543,9.07291602 208.703125,9.203125 C208.442707,9.33333398 208.220053,9.50781141 208.035156,9.7265625 C207.850259,9.94531359 207.704428,10.1966132 207.597656,10.4804688 C207.490885,10.7643243 207.429688,11.0572902 207.414062,11.359375 L211.640625,11.359375 C211.630208,11.0520818 211.576823,10.7565118 211.480469,10.4726562 C211.384114,10.1888007 211.248699,9.93880316 211.074219,9.72265625 C210.899739,9.50650934 210.688803,9.33333398 210.441406,9.203125 C210.194009,9.07291602 209.91146,9.0078125 209.59375,9.0078125 Z M217.210938,10.8515625 L220.570312,10.8515625 L220.570312,12 L217.210938,12 L217.210938,10.8515625 Z M224.414062,8.015625 L225.898438,8.015625 L227.867188,14.609375 L229.742188,8.015625 L231.210938,8.015625 L228.304688,17.203125 C228.216145,17.4843764 228.101563,17.7148429 227.960938,17.8945312 C227.820312,18.0742196 227.660157,18.2174474 227.480469,18.3242188 C227.30078,18.4309901 227.101564,18.5052081 226.882812,18.546875 C226.664061,18.5885419 226.432293,18.609375 226.1875,18.609375 C225.968749,18.609375 225.742189,18.5976564 225.507812,18.5742188 C225.273436,18.5507811 225.026043,18.5182294 224.765625,18.4765625 L224.960938,17.328125 C225.065105,17.3489584 225.177083,17.3671874 225.296875,17.3828125 C225.395834,17.3984376 225.507812,17.4114583 225.632812,17.421875 C225.757813,17.4322917 225.885416,17.4375 226.015625,17.4375 C226.302085,17.4375 226.524739,17.3750006 226.683594,17.25 C226.842449,17.1249994 226.955729,16.9218764 227.023438,16.640625 L227.101562,16.2734375 L224.414062,8.015625 Z M235.960938,7.859375 C236.513024,7.859375 237.015623,7.96223855 237.46875,8.16796875 C237.921877,8.37369895 238.308592,8.66015441 238.628906,9.02734375 C238.94922,9.39453309 239.197916,9.83202871 239.375,10.3398438 C239.552084,10.8476588 239.640625,11.406247 239.640625,12.015625 C239.640625,12.6145863 239.552084,13.1679662 239.375,13.6757812 C239.197916,14.1835963 238.94922,14.6210919 238.628906,14.9882812 C238.308592,15.3554706 237.921877,15.6419261 237.46875,15.8476562 C237.015623,16.0533864 236.513024,16.15625 235.960938,16.15625 C235.408851,16.15625 234.907554,16.0533864 234.457031,15.8476562 C234.006508,15.6419261 233.619793,15.3554706 233.296875,14.9882812 C232.973957,14.6210919 232.723959,14.1835963 232.546875,13.6757812 C232.369791,13.1679662 232.28125,12.6145863 232.28125,12.015625 C232.28125,11.406247 232.369791,10.8476588 232.546875,10.3398438 C232.723959,9.83202871 232.973957,9.39453309 233.296875,9.02734375 C233.619793,8.66015441 234.006508,8.37369895 234.457031,8.16796875 C234.907554,7.96223855 235.408851,7.859375 235.960938,7.859375 Z M235.960938,15.0078125 C236.341148,15.0078125 236.67578,14.9283862 236.964844,14.7695312 C237.253908,14.6106763 237.496093,14.3958347 237.691406,14.125 C237.88672,13.8541653 238.033854,13.5403664 238.132812,13.1835938 C238.231771,12.8268211 238.28125,12.453127 238.28125,12.0625 L238.28125,11.96875 C238.28125,11.5677063 238.231771,11.1875018 238.132812,10.828125 C238.033854,10.4687482 237.88672,10.1549493 237.691406,9.88671875 C237.496093,9.61848824 237.253908,9.40494871 236.964844,9.24609375 C236.67578,9.08723879 236.341148,9.0078125 235.960938,9.0078125 C235.580727,9.0078125 235.246095,9.08723879 234.957031,9.24609375 C234.667967,9.40494871 234.425782,9.61848824 234.230469,9.88671875 C234.035155,10.1549493 233.888021,10.4687482 233.789062,10.828125 C233.690104,11.1875018 233.640625,11.5677063 233.640625,11.96875 L233.640625,12.0625 C233.640625,12.453127 233.690104,12.8268211 233.789062,13.1835938 C233.888021,13.5403664 234.035155,13.8541653 234.230469,14.125 C234.425782,14.3958347 234.667967,14.6106763 234.957031,14.7695312 C235.246095,14.9283862 235.580727,15.0078125 235.960938,15.0078125 Z M247.8125,16 L246.5,16 L246.5,15.0859375 C246.229165,15.455731 245.894533,15.7265616 245.496094,15.8984375 C245.097654,16.0703134 244.653648,16.15625 244.164062,16.15625 C243.721352,16.15625 243.333335,16.0833341 243,15.9375 C242.666665,15.7916659 242.388022,15.5937513 242.164062,15.34375 C241.940103,15.0937487 241.772136,14.8046891 241.660156,14.4765625 C241.548177,14.1484359 241.492188,13.8020852 241.492188,13.4375 L241.492188,8.015625 L242.804688,8.015625 L242.804688,13.0234375 C242.804688,13.3776059 242.847656,13.6770821 242.933594,13.921875 C243.019532,14.1666679 243.136718,14.3658846 243.285156,14.5195312 C243.433594,14.6731779 243.608072,14.7851559 243.808594,14.8554688 C244.009116,14.9257816 244.223957,14.9609375 244.453125,14.9609375 C244.72396,14.9609375 244.983072,14.915365 245.230469,14.8242188 C245.477866,14.7330725 245.695312,14.5963551 245.882812,14.4140625 C246.070313,14.2317699 246.220052,14.0026055 246.332031,13.7265625 C246.444011,13.4505195 246.5,13.1250019 246.5,12.75 L246.5,8.015625 L247.8125,8.015625 L247.8125,16 Z M254.296875,9.1875 L254.085938,9.1875 C253.747394,9.1875 253.424481,9.22656211 253.117188,9.3046875 C252.809894,9.38281289 252.539064,9.52343648 252.304688,9.7265625 C252.070311,9.92968852 251.882813,10.2070295 251.742188,10.5585938 C251.601562,10.910158 251.53125,11.3593723 251.53125,11.90625 L251.53125,16 L250.21875,16 L250.21875,8.015625 L251.53125,8.015625 L251.53125,9.28125 C251.630209,9.04687383 251.76302,8.84114672 251.929688,8.6640625 C252.096355,8.48697828 252.285155,8.33984434 252.496094,8.22265625 C252.707032,8.10546816 252.933593,8.01822945 253.175781,7.9609375 C253.41797,7.90364555 253.664061,7.875 253.914062,7.875 L254.296875,7.875 L254.296875,9.1875 Z M333.53125,14.4453125 L334.976562,8.015625 L336.367188,8.015625 L334.414062,16 L332.734375,16 L331.117188,9.6015625 L329.46875,16 L327.851562,16 L325.914062,8.015625 L327.328125,8.015625 L328.71875,14.4453125 L330.398438,8.015625 L331.882812,8.015625 L333.53125,14.4453125 Z M339.375,16 L338.0625,16 L338.0625,8.015625 L339.375,8.015625 L339.375,16 Z M337.820312,5.7109375 C337.820312,5.58593688 337.845052,5.46875055 337.894531,5.359375 C337.944011,5.24999945 338.009114,5.15364625 338.089844,5.0703125 C338.170573,4.98697875 338.266927,4.92057316 338.378906,4.87109375 C338.490886,4.82161434 338.609374,4.796875 338.734375,4.796875 C338.859376,4.796875 338.976562,4.82161434 339.085938,4.87109375 C339.195313,4.92057316 339.290364,4.98697875 339.371094,5.0703125 C339.451823,5.15364625 339.516927,5.24999945 339.566406,5.359375 C339.615886,5.46875055 339.640625,5.58593688 339.640625,5.7109375 C339.640625,5.83593812 339.615886,5.95442652 339.566406,6.06640625 C339.516927,6.17838598 339.451823,6.27473918 339.371094,6.35546875 C339.290364,6.43619832 339.195313,6.50130184 339.085938,6.55078125 C338.976562,6.60026066 338.859376,6.625 338.734375,6.625 C338.609374,6.625 338.490886,6.60026066 338.378906,6.55078125 C338.266927,6.50130184 338.170573,6.43619832 338.089844,6.35546875 C338.009114,6.27473918 337.944011,6.17838598 337.894531,6.06640625 C337.845052,5.95442652 337.820312,5.83593812 337.820312,5.7109375 Z M341.71875,4.796875 L343.03125,4.796875 L343.03125,14.2109375 C343.03125,14.3411465 343.042969,14.4557287 343.066406,14.5546875 C343.089844,14.6536463 343.130208,14.7369788 343.1875,14.8046875 C343.244792,14.8723962 343.324218,14.9231769 343.425781,14.9570312 C343.527344,14.9908856 343.653645,15.0078125 343.804688,15.0078125 C343.971355,15.0078125 344.122395,15.0026042 344.257812,14.9921875 C344.39323,14.9817708 344.51302,14.9713542 344.617188,14.9609375 L344.75,16.0625 L344.296875,16.109375 C344.166666,16.1197917 344.023438,16.1302083 343.867188,16.140625 C343.710937,16.1510417 343.562501,16.15625 343.421875,16.15625 C343.187499,16.15625 342.966147,16.1289065 342.757812,16.0742188 C342.549478,16.019531 342.36849,15.9296881 342.214844,15.8046875 C342.061197,15.6796869 341.940105,15.5182302 341.851562,15.3203125 C341.76302,15.1223948 341.71875,14.8802098 341.71875,14.59375 L341.71875,4.796875 Z M345.945312,4.796875 L347.257812,4.796875 L347.257812,14.2109375 C347.257812,14.3411465 347.269531,14.4557287 347.292969,14.5546875 C347.316406,14.6536463 347.356771,14.7369788 347.414062,14.8046875 C347.471354,14.8723962 347.550781,14.9231769 347.652344,14.9570312 C347.753907,14.9908856 347.880208,15.0078125 348.03125,15.0078125 C348.197918,15.0078125 348.348958,15.0026042 348.484375,14.9921875 C348.619792,14.9817708 348.739583,14.9713542 348.84375,14.9609375 L348.976562,16.0625 L348.523438,16.109375 C348.393229,16.1197917 348.250001,16.1302083 348.09375,16.140625 C347.937499,16.1510417 347.789063,16.15625 347.648438,16.15625 C347.414061,16.15625 347.192709,16.1289065 346.984375,16.0742188 C346.776041,16.019531 346.595053,15.9296881 346.441406,15.8046875 C346.28776,15.6796869 346.166667,15.5182302 346.078125,15.3203125 C345.989583,15.1223948 345.945312,14.8802098 345.945312,14.59375 L345.945312,4.796875 Z M353.429688,4.796875 L354.742188,4.796875 L354.742188,8.9296875 C355.013022,8.55989398 355.347654,8.28906336 355.746094,8.1171875 C356.144533,7.94531164 356.588539,7.859375 357.078125,7.859375 C357.520836,7.859375 357.908853,7.93229094 358.242188,8.078125 C358.575522,8.22395906 358.854166,8.42187375 359.078125,8.671875 C359.302084,8.92187625 359.470052,9.21093586 359.582031,9.5390625 C359.694011,9.86718914 359.75,10.2135398 359.75,10.578125 L359.75,16 L358.4375,16 L358.4375,10.9921875 C358.4375,10.6432274 358.394532,10.3450533 358.308594,10.0976562 C358.222656,9.85025918 358.105469,9.64974035 357.957031,9.49609375 C357.808593,9.34244715 357.634116,9.2304691 357.433594,9.16015625 C357.233072,9.0898434 357.01823,9.0546875 356.789062,9.0546875 C356.539061,9.0546875 356.291668,9.10025996 356.046875,9.19140625 C355.802082,9.28255254 355.583334,9.41926992 355.390625,9.6015625 C355.197916,9.78385508 355.041667,10.0130195 354.921875,10.2890625 C354.802083,10.5651055 354.742188,10.8906231 354.742188,11.265625 L354.742188,16 L353.429688,16 L353.429688,4.796875 Z M362.976562,12.4140625 C363.002604,12.7890644 363.078124,13.1354151 363.203125,13.453125 C363.328126,13.7708349 363.498697,14.0455718 363.714844,14.2773438 C363.930991,14.5091157 364.186196,14.6888014 364.480469,14.8164062 C364.774741,14.9440111 365.101561,15.0078125 365.460938,15.0078125 C365.903648,15.0078125 366.292967,14.9335945 366.628906,14.7851562 C366.964845,14.636718 367.273436,14.450522 367.554688,14.2265625 L368.226562,15.171875 C367.867186,15.4583348 367.451825,15.6940095 366.980469,15.8789062 C366.509112,16.063803 365.981774,16.15625 365.398438,16.15625 C364.82031,16.15625 364.296877,16.0533864 363.828125,15.8476562 C363.359373,15.6419261 362.959637,15.3554706 362.628906,14.9882812 C362.298175,14.6210919 362.044272,14.1835963 361.867188,13.6757812 C361.690103,13.1679662 361.601562,12.6145863 361.601562,12.015625 C361.601562,11.406247 361.688801,10.8476588 361.863281,10.3398438 C362.037761,9.83202871 362.283853,9.39453309 362.601562,9.02734375 C362.919272,8.66015441 363.299477,8.37369895 363.742188,8.16796875 C364.184898,7.96223855 364.677081,7.859375 365.21875,7.859375 C365.744794,7.859375 366.218748,7.96223855 366.640625,8.16796875 C367.062502,8.37369895 367.421874,8.66015441 367.71875,9.02734375 C368.015626,9.39453309 368.243489,9.83202871 368.402344,10.3398438 C368.561199,10.8476588 368.640625,11.4010387 368.640625,12 L368.640625,12.4140625 L362.976562,12.4140625 Z M365.171875,9.0078125 C364.83854,9.0078125 364.541668,9.07291602 364.28125,9.203125 C364.020832,9.33333398 363.798178,9.50781141 363.613281,9.7265625 C363.428384,9.94531359 363.282553,10.1966132 363.175781,10.4804688 C363.06901,10.7643243 363.007813,11.0572902 362.992188,11.359375 L367.21875,11.359375 C367.208333,11.0520818 367.154948,10.7565118 367.058594,10.4726562 C366.962239,10.1888007 366.826824,9.93880316 366.652344,9.72265625 C366.477864,9.50650934 366.266928,9.33333398 366.019531,9.203125 C365.772134,9.07291602 365.489585,9.0078125 365.171875,9.0078125 Z M370.414062,4.796875 L371.726562,4.796875 L371.726562,14.2109375 C371.726562,14.3411465 371.738281,14.4557287 371.761719,14.5546875 C371.785156,14.6536463 371.825521,14.7369788 371.882812,14.8046875 C371.940104,14.8723962 372.019531,14.9231769 372.121094,14.9570312 C372.222657,14.9908856 372.348958,15.0078125 372.5,15.0078125 C372.666668,15.0078125 372.817708,15.0026042 372.953125,14.9921875 C373.088542,14.9817708 373.208333,14.9713542 373.3125,14.9609375 L373.445312,16.0625 L372.992188,16.109375 C372.861979,16.1197917 372.718751,16.1302083 372.5625,16.140625 C372.406249,16.1510417 372.257813,16.15625 372.117188,16.15625 C371.882811,16.15625 371.661459,16.1289065 371.453125,16.0742188 C371.244791,16.019531 371.063803,15.9296881 370.910156,15.8046875 C370.75651,15.6796869 370.635417,15.5182302 370.546875,15.3203125 C370.458333,15.1223948 370.414062,14.8802098 370.414062,14.59375 L370.414062,4.796875 Z M376.007812,8.015625 L376.007812,8.9296875 C376.242189,8.60156086 376.559894,8.3411468 376.960938,8.1484375 C377.361981,7.9557282 377.822914,7.859375 378.34375,7.859375 C378.859378,7.859375 379.325519,7.96223855 379.742188,8.16796875 C380.158856,8.37369895 380.515624,8.66145648 380.8125,9.03125 C381.109376,9.40104352 381.337239,9.83984121 381.496094,10.3476562 C381.654949,10.8554713 381.734375,11.4114553 381.734375,12.015625 C381.734375,12.6197947 381.654949,13.1744766 381.496094,13.6796875 C381.337239,14.1848984 381.109376,14.6210919 380.8125,14.9882812 C380.515624,15.3554706 380.158856,15.6419261 379.742188,15.8476562 C379.325519,16.0533864 378.859378,16.15625 378.34375,16.15625 C377.822914,16.15625 377.361981,16.0598968 376.960938,15.8671875 C376.559894,15.6744782 376.242189,15.4140641 376.007812,15.0859375 L376.007812,18.4296875 L374.695312,18.4296875 L374.695312,8.015625 L376.007812,8.015625 Z M380.375,11.96875 C380.375,11.5520813 380.325521,11.1640643 380.226562,10.8046875 C380.127604,10.4453107 379.981772,10.1341159 379.789062,9.87109375 C379.596353,9.6080716 379.358074,9.40104242 379.074219,9.25 C378.790363,9.09895758 378.466148,9.0234375 378.101562,9.0234375 C377.752602,9.0234375 377.446616,9.08333273 377.183594,9.203125 C376.920572,9.32291727 376.700522,9.48697813 376.523438,9.6953125 C376.346353,9.90364687 376.21224,10.1497382 376.121094,10.4335938 C376.029947,10.7174493 375.984375,11.02604 375.984375,11.359375 L375.984375,12.65625 C375.984375,12.989585 376.029947,13.2981757 376.121094,13.5820312 C376.21224,13.8658868 376.346353,14.1119781 376.523438,14.3203125 C376.700522,14.5286469 376.920572,14.6927077 377.183594,14.8125 C377.446616,14.9322923 377.752602,14.9921875 378.101562,14.9921875 C378.466148,14.9921875 378.790363,14.9166674 379.074219,14.765625 C379.358074,14.6145826 379.596353,14.4075534 379.789062,14.1445312 C379.981772,13.8815091 380.127604,13.5703143 380.226562,13.2109375 C380.325521,12.8515607 380.375,12.4635437 380.375,12.046875 L380.375,11.96875 Z M393.125,16 L391.8125,16 L391.8125,15.0859375 C391.541665,15.455731 391.207033,15.7265616 390.808594,15.8984375 C390.410154,16.0703134 389.966148,16.15625 389.476562,16.15625 C389.033852,16.15625 388.645835,16.0833341 388.3125,15.9375 C387.979165,15.7916659 387.700522,15.5937513 387.476562,15.34375 C387.252603,15.0937487 387.084636,14.8046891 386.972656,14.4765625 C386.860677,14.1484359 386.804688,13.8020852 386.804688,13.4375 L386.804688,8.015625 L388.117188,8.015625 L388.117188,13.0234375 C388.117188,13.3776059 388.160156,13.6770821 388.246094,13.921875 C388.332032,14.1666679 388.449218,14.3658846 388.597656,14.5195312 C388.746094,14.6731779 388.920572,14.7851559 389.121094,14.8554688 C389.321616,14.9257816 389.536457,14.9609375 389.765625,14.9609375 C390.03646,14.9609375 390.295572,14.915365 390.542969,14.8242188 C390.790366,14.7330725 391.007812,14.5963551 391.195312,14.4140625 C391.382813,14.2317699 391.532552,14.0026055 391.644531,13.7265625 C391.756511,13.4505195 391.8125,13.1250019 391.8125,12.75 L391.8125,8.015625 L393.125,8.015625 L393.125,16 Z M400.875,13.7890625 C400.875,14.1640644 400.79297,14.4986964 400.628906,14.7929688 C400.464843,15.0872411 400.247397,15.3359365 399.976562,15.5390625 C399.705728,15.7421885 399.394533,15.8958328 399.042969,16 C398.691404,16.1041672 398.330731,16.15625 397.960938,16.15625 C397.377601,16.15625 396.816409,16.0559906 396.277344,15.8554688 C395.738279,15.6549469 395.260419,15.3671894 394.84375,14.9921875 L395.5625,14.0625 C395.687501,14.1718755 395.83203,14.2864577 395.996094,14.40625 C396.160157,14.5260423 396.343749,14.6367182 396.546875,14.7382812 C396.750001,14.8398443 396.968749,14.9231768 397.203125,14.9882812 C397.437501,15.0533857 397.684895,15.0859375 397.945312,15.0859375 C398.158855,15.0859375 398.36328,15.058594 398.558594,15.0039062 C398.753907,14.9492185 398.924478,14.8684901 399.070312,14.7617188 C399.216147,14.6549474 399.332031,14.5273445 399.417969,14.3789062 C399.503907,14.230468 399.546875,14.0625009 399.546875,13.875 C399.546875,13.6666656 399.501303,13.4921882 399.410156,13.3515625 C399.31901,13.2109368 399.195313,13.0911463 399.039062,12.9921875 C398.882812,12.8932287 398.700522,12.807292 398.492188,12.734375 C398.283853,12.661458 398.065105,12.588542 397.835938,12.515625 L397.335938,12.3515625 C397.054686,12.257812 396.783855,12.1510423 396.523438,12.03125 C396.26302,11.9114577 396.032553,11.7643238 395.832031,11.5898438 C395.631509,11.4153637 395.472657,11.2083345 395.355469,10.96875 C395.238281,10.7291655 395.179688,10.44271 395.179688,10.109375 C395.179688,9.83854031 395.236979,9.56901176 395.351562,9.30078125 C395.466146,9.03255074 395.641926,8.79166773 395.878906,8.578125 C396.115887,8.36458227 396.416665,8.19140691 396.78125,8.05859375 C397.145835,7.92578059 397.575518,7.859375 398.070312,7.859375 C398.61719,7.859375 399.123696,7.95051992 399.589844,8.1328125 C400.055992,8.31510508 400.450519,8.54166531 400.773438,8.8125 L400.085938,9.7578125 C399.971354,9.64843695 399.835938,9.54427133 399.679688,9.4453125 C399.523437,9.34635367 399.356772,9.25911496 399.179688,9.18359375 C399.002603,9.10807254 398.817709,9.04687523 398.625,9 C398.432291,8.95312477 398.242188,8.9296875 398.054688,8.9296875 C397.768228,8.9296875 397.526043,8.96223926 397.328125,9.02734375 C397.130207,9.09244824 396.971355,9.17708281 396.851562,9.28125 C396.73177,9.38541719 396.644532,9.50260352 396.589844,9.6328125 C396.535156,9.76302148 396.507812,9.89062438 396.507812,10.015625 C396.507812,10.1979176 396.546875,10.3502598 396.625,10.4726562 C396.703125,10.5950527 396.805989,10.7005204 396.933594,10.7890625 C397.061199,10.8776046 397.20703,10.9531247 397.371094,11.015625 C397.535157,11.0781253 397.705728,11.1406247 397.882812,11.203125 L398.539062,11.421875 C398.851564,11.5260422 399.13802,11.6367182 399.398438,11.7539062 C399.658855,11.8710943 399.88802,12.0052076 400.085938,12.15625 C400.335939,12.3541677 400.529947,12.583332 400.667969,12.84375 C400.80599,13.104168 400.875,13.419269 400.875,13.7890625 Z M407.40625,16 L406.09375,16 L406.09375,8.015625 L407.40625,8.015625 L407.40625,16 Z M405.851562,5.7109375 C405.851562,5.58593688 405.876302,5.46875055 405.925781,5.359375 C405.975261,5.24999945 406.040364,5.15364625 406.121094,5.0703125 C406.201823,4.98697875 406.298177,4.92057316 406.410156,4.87109375 C406.522136,4.82161434 406.640624,4.796875 406.765625,4.796875 C406.890626,4.796875 407.007812,4.82161434 407.117188,4.87109375 C407.226563,4.92057316 407.321614,4.98697875 407.402344,5.0703125 C407.483073,5.15364625 407.548177,5.24999945 407.597656,5.359375 C407.647136,5.46875055 407.671875,5.58593688 407.671875,5.7109375 C407.671875,5.83593812 407.647136,5.95442652 407.597656,6.06640625 C407.548177,6.17838598 407.483073,6.27473918 407.402344,6.35546875 C407.321614,6.43619832 407.226563,6.50130184 407.117188,6.55078125 C407.007812,6.60026066 406.890626,6.625 406.765625,6.625 C406.640624,6.625 406.522136,6.60026066 406.410156,6.55078125 C406.298177,6.50130184 406.201823,6.43619832 406.121094,6.35546875 C406.040364,6.27473918 405.975261,6.17838598 405.925781,6.06640625 C405.876302,5.95442652 405.851562,5.83593812 405.851562,5.7109375 Z M415.789062,16 L414.476562,16 L414.476562,10.9765625 C414.476562,10.6223941 414.433594,10.3229179 414.347656,10.078125 C414.261718,9.83333211 414.147136,9.63541742 414.003906,9.484375 C413.860676,9.33333258 413.691407,9.22395867 413.496094,9.15625 C413.30078,9.08854133 413.093751,9.0546875 412.875,9.0546875 C412.656249,9.0546875 412.441407,9.09765582 412.230469,9.18359375 C412.01953,9.26953168 411.832032,9.40364492 411.667969,9.5859375 C411.503905,9.76823008 411.371094,9.99869652 411.269531,10.2773438 C411.167968,10.555991 411.117188,10.890623 411.117188,11.28125 L411.117188,16 L409.804688,16 L409.804688,8.015625 L411.117188,8.015625 L411.117188,8.9296875 C411.382814,8.55989398 411.691404,8.28906336 412.042969,8.1171875 C412.394533,7.94531164 412.783852,7.859375 413.210938,7.859375 C413.388022,7.859375 413.580728,7.88411434 413.789062,7.93359375 C413.997397,7.98307316 414.201822,8.05989531 414.402344,8.1640625 C414.602866,8.26822969 414.78776,8.40494707 414.957031,8.57421875 C415.126303,8.74349043 415.26302,8.94791547 415.367188,9.1875 C415.513022,8.94270711 415.680989,8.73567793 415.871094,8.56640625 C416.061199,8.39713457 416.261718,8.26041719 416.472656,8.15625 C416.683595,8.05208281 416.902343,7.97656273 417.128906,7.9296875 C417.35547,7.88281227 417.580728,7.859375 417.804688,7.859375 C418.236981,7.859375 418.61979,7.93229094 418.953125,8.078125 C419.28646,8.22395906 419.567707,8.41926961 419.796875,8.6640625 C420.026043,8.90885539 420.199218,9.19270672 420.316406,9.515625 C420.433594,9.83854328 420.492188,10.1770816 420.492188,10.53125 L420.492188,16 L419.179688,16 L419.179688,10.9765625 C419.179688,10.6223941 419.135417,10.3229179 419.046875,10.078125 C418.958333,9.83333211 418.838542,9.63541742 418.6875,9.484375 C418.536458,9.33333258 418.36198,9.22395867 418.164062,9.15625 C417.966145,9.08854133 417.760418,9.0546875 417.546875,9.0546875 C417.328124,9.0546875 417.113282,9.09765582 416.902344,9.18359375 C416.691405,9.26953168 416.503907,9.40364492 416.339844,9.5859375 C416.17578,9.76823008 416.042969,9.99869652 415.941406,10.2773438 C415.839843,10.555991 415.789062,10.890623 415.789062,11.28125 L415.789062,16 Z M424.140625,8.015625 L424.140625,8.9296875 C424.375001,8.60156086 424.692706,8.3411468 425.09375,8.1484375 C425.494794,7.9557282 425.955727,7.859375 426.476562,7.859375 C426.99219,7.859375 427.458331,7.96223855 427.875,8.16796875 C428.291669,8.37369895 428.648436,8.66145648 428.945312,9.03125 C429.242189,9.40104352 429.470051,9.83984121 429.628906,10.3476562 C429.787761,10.8554713 429.867188,11.4114553 429.867188,12.015625 C429.867188,12.6197947 429.787761,13.1744766 429.628906,13.6796875 C429.470051,14.1848984 429.242189,14.6210919 428.945312,14.9882812 C428.648436,15.3554706 428.291669,15.6419261 427.875,15.8476562 C427.458331,16.0533864 426.99219,16.15625 426.476562,16.15625 C425.955727,16.15625 425.494794,16.0598968 425.09375,15.8671875 C424.692706,15.6744782 424.375001,15.4140641 424.140625,15.0859375 L424.140625,18.4296875 L422.828125,18.4296875 L422.828125,8.015625 L424.140625,8.015625 Z M428.507812,11.96875 C428.507812,11.5520813 428.458334,11.1640643 428.359375,10.8046875 C428.260416,10.4453107 428.114584,10.1341159 427.921875,9.87109375 C427.729166,9.6080716 427.490887,9.40104242 427.207031,9.25 C426.923176,9.09895758 426.59896,9.0234375 426.234375,9.0234375 C425.885415,9.0234375 425.579428,9.08333273 425.316406,9.203125 C425.053384,9.32291727 424.833334,9.48697813 424.65625,9.6953125 C424.479166,9.90364687 424.345053,10.1497382 424.253906,10.4335938 C424.16276,10.7174493 424.117188,11.02604 424.117188,11.359375 L424.117188,12.65625 C424.117188,12.989585 424.16276,13.2981757 424.253906,13.5820312 C424.345053,13.8658868 424.479166,14.1119781 424.65625,14.3203125 C424.833334,14.5286469 425.053384,14.6927077 425.316406,14.8125 C425.579428,14.9322923 425.885415,14.9921875 426.234375,14.9921875 C426.59896,14.9921875 426.923176,14.9166674 427.207031,14.765625 C427.490887,14.6145826 427.729166,14.4075534 427.921875,14.1445312 C428.114584,13.8815091 428.260416,13.5703143 428.359375,13.2109375 C428.458334,12.8515607 428.507812,12.4635437 428.507812,12.046875 L428.507812,11.96875 Z M435.882812,9.1875 L435.671875,9.1875 C435.333332,9.1875 435.010418,9.22656211 434.703125,9.3046875 C434.395832,9.38281289 434.125001,9.52343648 433.890625,9.7265625 C433.656249,9.92968852 433.468751,10.2070295 433.328125,10.5585938 C433.187499,10.910158 433.117188,11.3593723 433.117188,11.90625 L433.117188,16 L431.804688,16 L431.804688,8.015625 L433.117188,8.015625 L433.117188,9.28125 C433.216146,9.04687383 433.348957,8.84114672 433.515625,8.6640625 C433.682293,8.48697828 433.871093,8.33984434 434.082031,8.22265625 C434.29297,8.10546816 434.51953,8.01822945 434.761719,7.9609375 C435.003907,7.90364555 435.249999,7.875 435.5,7.875 L435.882812,7.875 L435.882812,9.1875 Z M440.617188,7.859375 C441.169274,7.859375 441.671873,7.96223855 442.125,8.16796875 C442.578127,8.37369895 442.964842,8.66015441 443.285156,9.02734375 C443.60547,9.39453309 443.854166,9.83202871 444.03125,10.3398438 C444.208334,10.8476588 444.296875,11.406247 444.296875,12.015625 C444.296875,12.6145863 444.208334,13.1679662 444.03125,13.6757812 C443.854166,14.1835963 443.60547,14.6210919 443.285156,14.9882812 C442.964842,15.3554706 442.578127,15.6419261 442.125,15.8476562 C441.671873,16.0533864 441.169274,16.15625 440.617188,16.15625 C440.065101,16.15625 439.563804,16.0533864 439.113281,15.8476562 C438.662758,15.6419261 438.276043,15.3554706 437.953125,14.9882812 C437.630207,14.6210919 437.380209,14.1835963 437.203125,13.6757812 C437.026041,13.1679662 436.9375,12.6145863 436.9375,12.015625 C436.9375,11.406247 437.026041,10.8476588 437.203125,10.3398438 C437.380209,9.83202871 437.630207,9.39453309 437.953125,9.02734375 C438.276043,8.66015441 438.662758,8.37369895 439.113281,8.16796875 C439.563804,7.96223855 440.065101,7.859375 440.617188,7.859375 Z M440.617188,15.0078125 C440.997398,15.0078125 441.33203,14.9283862 441.621094,14.7695312 C441.910158,14.6106763 442.152343,14.3958347 442.347656,14.125 C442.54297,13.8541653 442.690104,13.5403664 442.789062,13.1835938 C442.888021,12.8268211 442.9375,12.453127 442.9375,12.0625 L442.9375,11.96875 C442.9375,11.5677063 442.888021,11.1875018 442.789062,10.828125 C442.690104,10.4687482 442.54297,10.1549493 442.347656,9.88671875 C442.152343,9.61848824 441.910158,9.40494871 441.621094,9.24609375 C441.33203,9.08723879 440.997398,9.0078125 440.617188,9.0078125 C440.236977,9.0078125 439.902345,9.08723879 439.613281,9.24609375 C439.324217,9.40494871 439.082032,9.61848824 438.886719,9.88671875 C438.691405,10.1549493 438.544271,10.4687482 438.445312,10.828125 C438.346354,11.1875018 438.296875,11.5677063 438.296875,11.96875 L438.296875,12.0625 C438.296875,12.453127 438.346354,12.8268211 438.445312,13.1835938 C438.544271,13.5403664 438.691405,13.8541653 438.886719,14.125 C439.082032,14.3958347 439.324217,14.6106763 439.613281,14.7695312 C439.902345,14.9283862 440.236977,15.0078125 440.617188,15.0078125 Z M447.929688,16 L445.398438,8.015625 L446.890625,8.015625 L448.804688,14.78125 L450.710938,8.015625 L452.203125,8.015625 L449.671875,16 L447.929688,16 Z M454.679688,12.4140625 C454.705729,12.7890644 454.781249,13.1354151 454.90625,13.453125 C455.031251,13.7708349 455.201822,14.0455718 455.417969,14.2773438 C455.634116,14.5091157 455.889321,14.6888014 456.183594,14.8164062 C456.477866,14.9440111 456.804686,15.0078125 457.164062,15.0078125 C457.606773,15.0078125 457.996092,14.9335945 458.332031,14.7851562 C458.66797,14.636718 458.976561,14.450522 459.257812,14.2265625 L459.929688,15.171875 C459.570311,15.4583348 459.15495,15.6940095 458.683594,15.8789062 C458.212237,16.063803 457.684899,16.15625 457.101562,16.15625 C456.523435,16.15625 456.000002,16.0533864 455.53125,15.8476562 C455.062498,15.6419261 454.662762,15.3554706 454.332031,14.9882812 C454.0013,14.6210919 453.747397,14.1835963 453.570312,13.6757812 C453.393228,13.1679662 453.304688,12.6145863 453.304688,12.015625 C453.304688,11.406247 453.391926,10.8476588 453.566406,10.3398438 C453.740886,9.83202871 453.986978,9.39453309 454.304688,9.02734375 C454.622397,8.66015441 455.002602,8.37369895 455.445312,8.16796875 C455.888023,7.96223855 456.380206,7.859375 456.921875,7.859375 C457.447919,7.859375 457.921873,7.96223855 458.34375,8.16796875 C458.765627,8.37369895 459.124999,8.66015441 459.421875,9.02734375 C459.718751,9.39453309 459.946614,9.83202871 460.105469,10.3398438 C460.264324,10.8476588 460.34375,11.4010387 460.34375,12 L460.34375,12.4140625 L454.679688,12.4140625 Z M456.875,9.0078125 C456.541665,9.0078125 456.244793,9.07291602 455.984375,9.203125 C455.723957,9.33333398 455.501303,9.50781141 455.316406,9.7265625 C455.131509,9.94531359 454.985678,10.1966132 454.878906,10.4804688 C454.772135,10.7643243 454.710938,11.0572902 454.695312,11.359375 L458.921875,11.359375 C458.911458,11.0520818 458.858073,10.7565118 458.761719,10.4726562 C458.665364,10.1888007 458.529949,9.93880316 458.355469,9.72265625 C458.180989,9.50650934 457.970053,9.33333398 457.722656,9.203125 C457.475259,9.07291602 457.19271,9.0078125 456.875,9.0078125 Z M466.6875,16 L465.375,16 L465.375,8.015625 L466.6875,8.015625 L466.6875,16 Z M465.132812,5.7109375 C465.132812,5.58593688 465.157552,5.46875055 465.207031,5.359375 C465.256511,5.24999945 465.321614,5.15364625 465.402344,5.0703125 C465.483073,4.98697875 465.579427,4.92057316 465.691406,4.87109375 C465.803386,4.82161434 465.921874,4.796875 466.046875,4.796875 C466.171876,4.796875 466.289062,4.82161434 466.398437,4.87109375 C466.507813,4.92057316 466.602864,4.98697875 466.683594,5.0703125 C466.764323,5.15364625 466.829427,5.24999945 466.878906,5.359375 C466.928386,5.46875055 466.953125,5.58593688 466.953125,5.7109375 C466.953125,5.83593812 466.928386,5.95442652 466.878906,6.06640625 C466.829427,6.17838598 466.764323,6.27473918 466.683594,6.35546875 C466.602864,6.43619832 466.507813,6.50130184 466.398437,6.55078125 C466.289062,6.60026066 466.171876,6.625 466.046875,6.625 C465.921874,6.625 465.803386,6.60026066 465.691406,6.55078125 C465.579427,6.50130184 465.483073,6.43619832 465.402344,6.35546875 C465.321614,6.27473918 465.256511,6.17838598 465.207031,6.06640625 C465.157552,5.95442652 465.132812,5.83593812 465.132812,5.7109375 Z M471.148437,14.015625 C471.148437,14.1510423 471.157552,14.2773432 471.175781,14.3945312 C471.194011,14.5117193 471.238281,14.6145829 471.308594,14.703125 C471.378907,14.7916671 471.48177,14.8619789 471.617187,14.9140625 C471.752605,14.9661461 471.937499,14.9921875 472.171875,14.9921875 C472.234375,14.9921875 472.308593,14.9895834 472.394531,14.984375 C472.480469,14.9791666 472.570312,14.9726563 472.664062,14.9648438 C472.757813,14.9570312 472.848958,14.9466146 472.9375,14.9335938 C473.026042,14.9205729 473.101562,14.9088542 473.164062,14.8984375 L473.304687,16.046875 C473.153645,16.0677084 472.997397,16.0859374 472.835937,16.1015625 C472.70052,16.1171876 472.54948,16.1302083 472.382812,16.140625 C472.216145,16.1510417 472.04948,16.15625 471.882812,16.15625 C471.565103,16.15625 471.279949,16.1236982 471.027344,16.0585938 C470.774738,15.9934893 470.559897,15.8880216 470.382812,15.7421875 C470.205728,15.5963534 470.070313,15.4049491 469.976562,15.1679688 C469.882812,14.9309884 469.835937,14.6432309 469.835937,14.3046875 L469.835937,9.171875 L468.328125,9.171875 L468.328125,8.015625 L469.835937,8.015625 L469.835937,5.40625 L471.148437,4.9453125 L471.148437,8.015625 L473.367187,8.015625 L473.367187,9.171875 L471.148437,9.171875 L471.148437,14.015625 Z M480.0625,8.015625 L481.648437,8.015625 L481.648437,9.171875 L480.0625,9.171875 L480.0625,16 L478.75,16 L478.75,9.171875 L477.421875,9.171875 L477.421875,8.015625 L478.75,8.015625 L478.75,6.53125 C478.75,6.18749828 478.804687,5.89583453 478.914062,5.65625 C479.023438,5.41666547 479.17578,5.22265699 479.371094,5.07421875 C479.566407,4.92578051 479.798176,4.81901074 480.066406,4.75390625 C480.334637,4.68880176 480.627603,4.65625 480.945312,4.65625 C481.268231,4.65625 481.536457,4.67057277 481.75,4.69921875 C481.963543,4.72786473 482.122395,4.74999992 482.226562,4.765625 L482.125,5.890625 C482.046875,5.88541664 481.957032,5.87760422 481.855469,5.8671875 C481.753906,5.85677078 481.64974,5.84895836 481.542969,5.84375 C481.436197,5.83854164 481.333334,5.83333336 481.234375,5.828125 C481.135416,5.82291664 481.054688,5.8203125 480.992187,5.8203125 C480.804687,5.8203125 480.651042,5.84765598 480.53125,5.90234375 C480.411458,5.95703152 480.316407,6.02864539 480.246094,6.1171875 C480.175781,6.20572961 480.127604,6.30729109 480.101562,6.421875 C480.075521,6.53645891 480.0625,6.65624937 480.0625,6.78125 L480.0625,8.015625 Z M486.492187,7.859375 C487.044274,7.859375 487.546873,7.96223855 488,8.16796875 C488.453127,8.37369895 488.839842,8.66015441 489.160156,9.02734375 C489.48047,9.39453309 489.729166,9.83202871 489.90625,10.3398438 C490.083334,10.8476588 490.171875,11.406247 490.171875,12.015625 C490.171875,12.6145863 490.083334,13.1679662 489.90625,13.6757812 C489.729166,14.1835963 489.48047,14.6210919 489.160156,14.9882812 C488.839842,15.3554706 488.453127,15.6419261 488,15.8476562 C487.546873,16.0533864 487.044274,16.15625 486.492187,16.15625 C485.940101,16.15625 485.438804,16.0533864 484.988281,15.8476562 C484.537758,15.6419261 484.151043,15.3554706 483.828125,14.9882812 C483.505207,14.6210919 483.255209,14.1835963 483.078125,13.6757812 C482.901041,13.1679662 482.8125,12.6145863 482.8125,12.015625 C482.8125,11.406247 482.901041,10.8476588 483.078125,10.3398438 C483.255209,9.83202871 483.505207,9.39453309 483.828125,9.02734375 C484.151043,8.66015441 484.537758,8.37369895 484.988281,8.16796875 C485.438804,7.96223855 485.940101,7.859375 486.492187,7.859375 Z M486.492187,15.0078125 C486.872398,15.0078125 487.20703,14.9283862 487.496094,14.7695312 C487.785158,14.6106763 488.027343,14.3958347 488.222656,14.125 C488.41797,13.8541653 488.565104,13.5403664 488.664062,13.1835938 C488.763021,12.8268211 488.8125,12.453127 488.8125,12.0625 L488.8125,11.96875 C488.8125,11.5677063 488.763021,11.1875018 488.664062,10.828125 C488.565104,10.4687482 488.41797,10.1549493 488.222656,9.88671875 C488.027343,9.61848824 487.785158,9.40494871 487.496094,9.24609375 C487.20703,9.08723879 486.872398,9.0078125 486.492187,9.0078125 C486.111977,9.0078125 485.777345,9.08723879 485.488281,9.24609375 C485.199217,9.40494871 484.957032,9.61848824 484.761719,9.88671875 C484.566405,10.1549493 484.419271,10.4687482 484.320312,10.828125 C484.221354,11.1875018 484.171875,11.5677063 484.171875,11.96875 L484.171875,12.0625 C484.171875,12.453127 484.221354,12.8268211 484.320312,13.1835938 C484.419271,13.5403664 484.566405,13.8541653 484.761719,14.125 C484.957032,14.3958347 485.199217,14.6106763 485.488281,14.7695312 C485.777345,14.9283862 486.111977,15.0078125 486.492187,15.0078125 Z M496.171875,9.1875 L495.960937,9.1875 C495.622394,9.1875 495.299481,9.22656211 494.992187,9.3046875 C494.684894,9.38281289 494.414064,9.52343648 494.179687,9.7265625 C493.945311,9.92968852 493.757813,10.2070295 493.617187,10.5585938 C493.476562,10.910158 493.40625,11.3593723 493.40625,11.90625 L493.40625,16 L492.09375,16 L492.09375,8.015625 L493.40625,8.015625 L493.40625,9.28125 C493.505209,9.04687383 493.63802,8.84114672 493.804687,8.6640625 C493.971355,8.48697828 494.160155,8.33984434 494.371094,8.22265625 C494.582032,8.10546816 494.808593,8.01822945 495.050781,7.9609375 C495.29297,7.90364555 495.539061,7.875 495.789062,7.875 L496.171875,7.875 L496.171875,9.1875 Z M500.03125,8.015625 L501.515625,8.015625 L503.484375,14.609375 L505.359375,8.015625 L506.828125,8.015625 L503.921875,17.203125 C503.833333,17.4843764 503.718751,17.7148429 503.578125,17.8945312 C503.437499,18.0742196 503.277345,18.2174474 503.097656,18.3242188 C502.917968,18.4309901 502.718751,18.5052081 502.5,18.546875 C502.281249,18.5885419 502.04948,18.609375 501.804687,18.609375 C501.585936,18.609375 501.359376,18.5976564 501.125,18.5742188 C500.890624,18.5507811 500.64323,18.5182294 500.382812,18.4765625 L500.578125,17.328125 C500.682292,17.3489584 500.79427,17.3671874 500.914062,17.3828125 C501.013021,17.3984376 501.124999,17.4114583 501.25,17.421875 C501.375001,17.4322917 501.502604,17.4375 501.632812,17.4375 C501.919272,17.4375 502.141926,17.3750006 502.300781,17.25 C502.459636,17.1249994 502.572916,16.9218764 502.640625,16.640625 L502.71875,16.2734375 L500.03125,8.015625 Z M511.578125,7.859375 C512.130211,7.859375 512.63281,7.96223855 513.085938,8.16796875 C513.539065,8.37369895 513.92578,8.66015441 514.246094,9.02734375 C514.566408,9.39453309 514.815103,9.83202871 514.992188,10.3398438 C515.169272,10.8476588 515.257812,11.406247 515.257812,12.015625 C515.257812,12.6145863 515.169272,13.1679662 514.992188,13.6757812 C514.815103,14.1835963 514.566408,14.6210919 514.246094,14.9882812 C513.92578,15.3554706 513.539065,15.6419261 513.085938,15.8476562 C512.63281,16.0533864 512.130211,16.15625 511.578125,16.15625 C511.026039,16.15625 510.524742,16.0533864 510.074219,15.8476562 C509.623696,15.6419261 509.236981,15.3554706 508.914062,14.9882812 C508.591144,14.6210919 508.341147,14.1835963 508.164062,13.6757812 C507.986978,13.1679662 507.898437,12.6145863 507.898437,12.015625 C507.898437,11.406247 507.986978,10.8476588 508.164062,10.3398438 C508.341147,9.83202871 508.591144,9.39453309 508.914062,9.02734375 C509.236981,8.66015441 509.623696,8.37369895 510.074219,8.16796875 C510.524742,7.96223855 511.026039,7.859375 511.578125,7.859375 Z M511.578125,15.0078125 C511.958335,15.0078125 512.292967,14.9283862 512.582031,14.7695312 C512.871095,14.6106763 513.11328,14.3958347 513.308594,14.125 C513.503907,13.8541653 513.651041,13.5403664 513.75,13.1835938 C513.848959,12.8268211 513.898438,12.453127 513.898438,12.0625 L513.898438,11.96875 C513.898438,11.5677063 513.848959,11.1875018 513.75,10.828125 C513.651041,10.4687482 513.503907,10.1549493 513.308594,9.88671875 C513.11328,9.61848824 512.871095,9.40494871 512.582031,9.24609375 C512.292967,9.08723879 511.958335,9.0078125 511.578125,9.0078125 C511.197915,9.0078125 510.863283,9.08723879 510.574219,9.24609375 C510.285155,9.40494871 510.04297,9.61848824 509.847656,9.88671875 C509.652343,10.1549493 509.505209,10.4687482 509.40625,10.828125 C509.307291,11.1875018 509.257812,11.5677063 509.257812,11.96875 L509.257812,12.0625 C509.257812,12.453127 509.307291,12.8268211 509.40625,13.1835938 C509.505209,13.5403664 509.652343,13.8541653 509.847656,14.125 C510.04297,14.3958347 510.285155,14.6106763 510.574219,14.7695312 C510.863283,14.9283862 511.197915,15.0078125 511.578125,15.0078125 Z M523.429688,16 L522.117188,16 L522.117188,15.0859375 C521.846353,15.455731 521.511721,15.7265616 521.113281,15.8984375 C520.714842,16.0703134 520.270836,16.15625 519.78125,16.15625 C519.338539,16.15625 518.950523,16.0833341 518.617188,15.9375 C518.283852,15.7916659 518.005209,15.5937513 517.78125,15.34375 C517.557291,15.0937487 517.389323,14.8046891 517.277344,14.4765625 C517.165364,14.1484359 517.109375,13.8020852 517.109375,13.4375 L517.109375,8.015625 L518.421875,8.015625 L518.421875,13.0234375 C518.421875,13.3776059 518.464843,13.6770821 518.550781,13.921875 C518.636719,14.1666679 518.753906,14.3658846 518.902344,14.5195312 C519.050782,14.6731779 519.225259,14.7851559 519.425781,14.8554688 C519.626303,14.9257816 519.841145,14.9609375 520.070312,14.9609375 C520.341147,14.9609375 520.600259,14.915365 520.847656,14.8242188 C521.095053,14.7330725 521.312499,14.5963551 521.5,14.4140625 C521.687501,14.2317699 521.837239,14.0026055 521.949219,13.7265625 C522.061198,13.4505195 522.117188,13.1250019 522.117188,12.75 L522.117188,8.015625 L523.429688,8.015625 L523.429688,16 Z M525.835938,15.25 C525.835938,15.1249994 525.860677,15.006511 525.910156,14.8945312 C525.959636,14.7825515 526.024739,14.6861983 526.105469,14.6054688 C526.186198,14.5247392 526.281249,14.4596357 526.390625,14.4101562 C526.500001,14.3606768 526.617187,14.3359375 526.742188,14.3359375 C526.867188,14.3359375 526.985677,14.3606768 527.097656,14.4101562 C527.209636,14.4596357 527.305989,14.5247392 527.386719,14.6054688 C527.467448,14.6861983 527.532552,14.7825515 527.582031,14.8945312 C527.631511,15.006511 527.65625,15.1249994 527.65625,15.25 C527.65625,15.3750006 527.631511,15.492187 527.582031,15.6015625 C527.532552,15.710938 527.467448,15.8059892 527.386719,15.8867188 C527.305989,15.9674483 527.209636,16.0325518 527.097656,16.0820312 C526.985677,16.1315107 526.867188,16.15625 526.742188,16.15625 C526.617187,16.15625 526.500001,16.1315107 526.390625,16.0820312 C526.281249,16.0325518 526.186198,15.9674483 526.105469,15.8867188 C526.024739,15.8059892 525.959636,15.710938 525.910156,15.6015625 C525.860677,15.492187 525.835938,15.3750006 525.835938,15.25 Z" id="This-is-a-new-servic" fill="#231F20"></path>
            <g id="Group" transform="translate(258.000000, 4.000000)" fill="#005EA5">
                <path d="M3.0703125,4.015625 L4.65625,4.015625 L4.65625,5.171875 L3.0703125,5.171875 L3.0703125,12 L1.7578125,12 L1.7578125,5.171875 L0.4296875,5.171875 L0.4296875,4.015625 L1.7578125,4.015625 L1.7578125,2.53125 C1.7578125,2.18749828 1.81249945,1.89583453 1.921875,1.65625 C2.03125055,1.41666547 2.18359277,1.22265699 2.37890625,1.07421875 C2.57421973,0.925780508 2.80598824,0.819010742 3.07421875,0.75390625 C3.34244926,0.688801758 3.63541508,0.65625 3.953125,0.65625 C4.27604328,0.65625 4.54426977,0.670572773 4.7578125,0.69921875 C4.97135523,0.727864727 5.13020781,0.749999922 5.234375,0.765625 L5.1328125,1.890625 C5.05468711,1.88541664 4.96484426,1.87760422 4.86328125,1.8671875 C4.76171824,1.85677078 4.65755262,1.84895836 4.55078125,1.84375 C4.44400988,1.83854164 4.34114633,1.83333336 4.2421875,1.828125 C4.14322867,1.82291664 4.06250031,1.8203125 4,1.8203125 C3.81249906,1.8203125 3.65885477,1.84765598 3.5390625,1.90234375 C3.41927023,1.95703152 3.3242191,2.02864539 3.25390625,2.1171875 C3.1835934,2.20572961 3.1354168,2.30729109 3.109375,2.421875 C3.0833332,2.53645891 3.0703125,2.65624938 3.0703125,2.78125 L3.0703125,4.015625 Z M7.1953125,8.4140625 C7.2213543,8.78906438 7.29687438,9.13541508 7.421875,9.453125 C7.54687562,9.77083492 7.71744684,10.0455718 7.93359375,10.2773438 C8.14974066,10.5091157 8.40494645,10.6888014 8.69921875,10.8164062 C8.99349105,10.9440111 9.3203107,11.0078125 9.6796875,11.0078125 C10.122398,11.0078125 10.5117171,10.9335945 10.8476562,10.7851562 C11.1835954,10.636718 11.4921861,10.450522 11.7734375,10.2265625 L12.4453125,11.171875 C12.0859357,11.4583348 11.6705753,11.6940095 11.1992188,11.8789062 C10.7278622,12.063803 10.2005238,12.15625 9.6171875,12.15625 C9.03905961,12.15625 8.51562734,12.0533864 8.046875,11.8476562 C7.57812266,11.6419261 7.17838707,11.3554706 6.84765625,10.9882812 C6.51692543,10.6210919 6.26302172,10.1835963 6.0859375,9.67578125 C5.90885328,9.16796621 5.8203125,8.61458633 5.8203125,8.015625 C5.8203125,7.40624695 5.90755121,6.84765879 6.08203125,6.33984375 C6.25651129,5.83202871 6.50260258,5.39453309 6.8203125,5.02734375 C7.13802242,4.66015441 7.51822695,4.37369895 7.9609375,4.16796875 C8.40364805,3.96223855 8.89583063,3.859375 9.4375,3.859375 C9.9635443,3.859375 10.4374979,3.96223855 10.859375,4.16796875 C11.2812521,4.37369895 11.6406235,4.66015441 11.9375,5.02734375 C12.2343765,5.39453309 12.4622388,5.83202871 12.6210938,6.33984375 C12.7799487,6.84765879 12.859375,7.40103867 12.859375,8 L12.859375,8.4140625 L7.1953125,8.4140625 Z M9.390625,5.0078125 C9.05729,5.0078125 8.76041797,5.07291602 8.5,5.203125 C8.23958203,5.33333398 8.01692801,5.50781141 7.83203125,5.7265625 C7.64713449,5.94531359 7.50130262,6.19661316 7.39453125,6.48046875 C7.28775988,6.76432434 7.22656258,7.05729016 7.2109375,7.359375 L11.4375,7.359375 C11.4270833,7.0520818 11.3736984,6.75651184 11.2773438,6.47265625 C11.1809891,6.18880066 11.0455738,5.93880316 10.8710938,5.72265625 C10.6966137,5.50650934 10.4856783,5.33333398 10.2382812,5.203125 C9.99088418,5.07291602 9.70833492,5.0078125 9.390625,5.0078125 Z M15.578125,8.4140625 C15.6041668,8.78906438 15.6796869,9.13541508 15.8046875,9.453125 C15.9296881,9.77083492 16.1002593,10.0455718 16.3164062,10.2773438 C16.5325532,10.5091157 16.7877589,10.6888014 17.0820312,10.8164062 C17.3763036,10.9440111 17.7031232,11.0078125 18.0625,11.0078125 C18.5052105,11.0078125 18.8945296,10.9335945 19.2304688,10.7851562 C19.5664079,10.636718 19.8749986,10.450522 20.15625,10.2265625 L20.828125,11.171875 C20.4687482,11.4583348 20.0533878,11.6940095 19.5820312,11.8789062 C19.1106747,12.063803 18.5833363,12.15625 18,12.15625 C17.4218721,12.15625 16.8984398,12.0533864 16.4296875,11.8476562 C15.9609352,11.6419261 15.5611996,11.3554706 15.2304688,10.9882812 C14.8997379,10.6210919 14.6458342,10.1835963 14.46875,9.67578125 C14.2916658,9.16796621 14.203125,8.61458633 14.203125,8.015625 C14.203125,7.40624695 14.2903637,6.84765879 14.4648438,6.33984375 C14.6393238,5.83202871 14.8854151,5.39453309 15.203125,5.02734375 C15.5208349,4.66015441 15.9010395,4.37369895 16.34375,4.16796875 C16.7864605,3.96223855 17.2786431,3.859375 17.8203125,3.859375 C18.3463568,3.859375 18.8203104,3.96223855 19.2421875,4.16796875 C19.6640646,4.37369895 20.023436,4.66015441 20.3203125,5.02734375 C20.617189,5.39453309 20.8450513,5.83202871 21.0039062,6.33984375 C21.1627612,6.84765879 21.2421875,7.40103867 21.2421875,8 L21.2421875,8.4140625 L15.578125,8.4140625 Z M17.7734375,5.0078125 C17.4401025,5.0078125 17.1432305,5.07291602 16.8828125,5.203125 C16.6223945,5.33333398 16.3997405,5.50781141 16.2148438,5.7265625 C16.029947,5.94531359 15.8841151,6.19661316 15.7773438,6.48046875 C15.6705724,6.76432434 15.6093751,7.05729016 15.59375,7.359375 L19.8203125,7.359375 C19.8098958,7.0520818 19.7565109,6.75651184 19.6601562,6.47265625 C19.5638016,6.18880066 19.4283863,5.93880316 19.2539062,5.72265625 C19.0794262,5.50650934 18.8684908,5.33333398 18.6210938,5.203125 C18.3736967,5.07291602 18.0911474,5.0078125 17.7734375,5.0078125 Z M28.328125,11.0859375 C28.0937488,11.4140641 27.7747416,11.6744782 27.3710938,11.8671875 C26.9674459,12.0598968 26.5078151,12.15625 25.9921875,12.15625 C25.4765599,12.15625 25.0104187,12.0533864 24.59375,11.8476562 C24.1770813,11.6419261 23.820314,11.3554706 23.5234375,10.9882812 C23.226561,10.6210919 22.9986987,10.1848984 22.8398438,9.6796875 C22.6809888,9.17447664 22.6015625,8.61979469 22.6015625,8.015625 C22.6015625,7.41145531 22.6809888,6.85547129 22.8398438,6.34765625 C22.9986987,5.83984121 23.226561,5.40104352 23.5234375,5.03125 C23.820314,4.66145648 24.1770813,4.37369895 24.59375,4.16796875 C25.0104187,3.96223855 25.4765599,3.859375 25.9921875,3.859375 C26.5078151,3.859375 26.9674459,3.9557282 27.3710938,4.1484375 C27.7747416,4.3411468 28.0937488,4.60156086 28.328125,4.9296875 L28.328125,0.796875 L29.640625,0.796875 L29.640625,12 L28.328125,12 L28.328125,11.0859375 Z M23.9609375,8.046875 C23.9609375,8.46354375 24.0104162,8.8515607 24.109375,9.2109375 C24.2083338,9.5703143 24.3541657,9.8815091 24.546875,10.1445312 C24.7395843,10.4075534 24.9765611,10.6145826 25.2578125,10.765625 C25.5390639,10.9166674 25.8645815,10.9921875 26.234375,10.9921875 C26.5833351,10.9921875 26.8893216,10.9322923 27.1523438,10.8125 C27.4153659,10.6927077 27.6354158,10.5286469 27.8125,10.3203125 C27.9895842,10.1119781 28.1223954,9.86588684 28.2109375,9.58203125 C28.2994796,9.29817566 28.34375,8.989585 28.34375,8.65625 L28.34375,7.359375 C28.34375,7.02604 28.2994796,6.71744934 28.2109375,6.43359375 C28.1223954,6.14973816 27.9895842,5.90364687 27.8125,5.6953125 C27.6354158,5.48697813 27.4153659,5.32291727 27.1523438,5.203125 C26.8893216,5.08333273 26.5833351,5.0234375 26.234375,5.0234375 C25.8645815,5.0234375 25.5390639,5.09895758 25.2578125,5.25 C24.9765611,5.40104242 24.7395843,5.6080716 24.546875,5.87109375 C24.3541657,6.1341159 24.2083338,6.4453107 24.109375,6.8046875 C24.0104162,7.1640643 23.9609375,7.55208125 23.9609375,7.96875 L23.9609375,8.046875 Z M33.359375,12 L32.046875,12 L32.046875,0.796875 L33.359375,0.796875 L33.359375,4.9296875 C33.5937512,4.60156086 33.9114563,4.3411468 34.3125,4.1484375 C34.7135437,3.9557282 35.1744766,3.859375 35.6953125,3.859375 C36.2109401,3.859375 36.6770813,3.96223855 37.09375,4.16796875 C37.5104187,4.37369895 37.867186,4.66145648 38.1640625,5.03125 C38.460939,5.40104352 38.6888013,5.83984121 38.8476562,6.34765625 C39.0065112,6.85547129 39.0859375,7.41145531 39.0859375,8.015625 C39.0859375,8.61979469 39.0065112,9.17447664 38.8476562,9.6796875 C38.6888013,10.1848984 38.460939,10.6210919 38.1640625,10.9882812 C37.867186,11.3554706 37.5104187,11.6419261 37.09375,11.8476562 C36.6770813,12.0533864 36.2109401,12.15625 35.6953125,12.15625 C35.1744766,12.15625 34.7135437,12.0598968 34.3125,11.8671875 C33.9114563,11.6744782 33.5937512,11.4140641 33.359375,11.0859375 L33.359375,12 Z M37.7265625,7.96875 C37.7265625,7.55208125 37.6770838,7.1640643 37.578125,6.8046875 C37.4791662,6.4453107 37.3333343,6.1341159 37.140625,5.87109375 C36.9479157,5.6080716 36.7096368,5.40104242 36.4257812,5.25 C36.1419257,5.09895758 35.8177102,5.0234375 35.453125,5.0234375 C35.1041649,5.0234375 34.7981784,5.08333273 34.5351562,5.203125 C34.2721341,5.32291727 34.0520842,5.48697813 33.875,5.6953125 C33.6979158,5.90364687 33.5638025,6.14973816 33.4726562,6.43359375 C33.38151,6.71744934 33.3359375,7.02604 33.3359375,7.359375 L33.3359375,8.65625 C33.3359375,8.989585 33.38151,9.29817566 33.4726562,9.58203125 C33.5638025,9.86588684 33.6979158,10.1119781 33.875,10.3203125 C34.0520842,10.5286469 34.2721341,10.6927077 34.5351562,10.8125 C34.7981784,10.9322923 35.1041649,10.9921875 35.453125,10.9921875 C35.8177102,10.9921875 36.1419257,10.9166674 36.4257812,10.765625 C36.7096368,10.6145826 36.9479157,10.4075534 37.140625,10.1445312 C37.3333343,9.8815091 37.4791662,9.5703143 37.578125,9.2109375 C37.6770838,8.8515607 37.7265625,8.46354375 37.7265625,8.046875 L37.7265625,7.96875 Z M45.5625,11.203125 C45.3281238,11.4739597 45.0117207,11.7005199 44.6132812,11.8828125 C44.2148418,12.0651051 43.7473985,12.15625 43.2109375,12.15625 C42.8151022,12.15625 42.4479184,12.100261 42.109375,11.9882812 C41.7708316,11.8763015 41.4765637,11.7161469 41.2265625,11.5078125 C40.9765613,11.2994781 40.7812507,11.0468765 40.640625,10.75 C40.4999993,10.4531235 40.4296875,10.1171894 40.4296875,9.7421875 C40.4296875,9.42968594 40.4804682,9.14453254 40.5820312,8.88671875 C40.6835943,8.62890496 40.826822,8.4036468 41.0117188,8.2109375 C41.1966155,8.0182282 41.4192695,7.8606777 41.6796875,7.73828125 C41.9401055,7.6158848 42.2317692,7.53125023 42.5546875,7.484375 L45.375,7.1015625 L45.375,6.59375 C45.375,6.29166516 45.3281255,6.03776145 45.234375,5.83203125 C45.1406245,5.62630105 45.0143237,5.46354227 44.8554688,5.34375 C44.6966138,5.22395773 44.5091157,5.13802109 44.2929688,5.0859375 C44.0768218,5.03385391 43.8437512,5.0078125 43.59375,5.0078125 C43.1458311,5.0078125 42.7278665,5.07031188 42.3398438,5.1953125 C41.951821,5.32031312 41.6015641,5.466145 41.2890625,5.6328125 L40.796875,4.59375 C41.2552106,4.33333203 41.7356746,4.14583391 42.2382812,4.03125 C42.7408879,3.91666609 43.2369767,3.859375 43.7265625,3.859375 C44.7005257,3.859375 45.4374975,4.07942488 45.9375,4.51953125 C46.4375025,4.95963762 46.6875,5.60155828 46.6875,6.4453125 L46.6875,10.125 C46.6875,10.3906263 46.7395828,10.6132804 46.84375,10.7929688 C46.9479172,10.9726571 47.1145822,11.1145828 47.34375,11.21875 L46.6015625,12.15625 C46.3515613,12.0937497 46.1367196,11.9830737 45.9570312,11.8242188 C45.7773429,11.6653638 45.651042,11.4739595 45.578125,11.25 L45.5625,11.203125 Z M43.2265625,8.4453125 C43.0078114,8.47656266 42.8085946,8.52083305 42.6289062,8.578125 C42.4492179,8.63541695 42.2968756,8.7122391 42.171875,8.80859375 C42.0468744,8.9049484 41.9492191,9.0234368 41.8789062,9.1640625 C41.8085934,9.3046882 41.7734375,9.47656148 41.7734375,9.6796875 C41.7734375,9.91406367 41.8177079,10.1223949 41.90625,10.3046875 C41.9947921,10.4869801 42.1145826,10.6406244 42.265625,10.765625 C42.4166674,10.8906256 42.5924469,10.9856768 42.7929688,11.0507812 C42.9934906,11.1158857 43.2031239,11.1484375 43.421875,11.1484375 C43.6666679,11.1484375 43.9062488,11.1145837 44.140625,11.046875 C44.3750012,10.9791663 44.5833324,10.8815111 44.765625,10.7539062 C44.9479176,10.6263014 45.0950515,10.4713551 45.2070312,10.2890625 C45.319011,10.1067699 45.375,9.89843867 45.375,9.6640625 L45.375,8.125 L43.2265625,8.4453125 Z M49.9453125,8.046875 C49.9453125,8.44791867 49.9947912,8.8281232 50.09375,9.1875 C50.1927088,9.5468768 50.3385407,9.86067574 50.53125,10.1289062 C50.7239593,10.3971368 50.9648423,10.6106763 51.2539062,10.7695312 C51.5429702,10.9283862 51.8802064,11.0078125 52.265625,11.0078125 C52.5156262,11.0078125 52.7460927,10.9726566 52.9570312,10.9023438 C53.1679698,10.8320309 53.3580721,10.7369798 53.5273438,10.6171875 C53.6966154,10.4973952 53.8476556,10.3554696 53.9804688,10.1914062 C54.1132819,10.0273429 54.2291662,9.85156344 54.328125,9.6640625 L55.421875,10.2890625 C55.2864577,10.5703139 55.1132823,10.8268218 54.9023438,11.0585938 C54.6914052,11.2903657 54.4505222,11.4869784 54.1796875,11.6484375 C53.9088528,11.8098966 53.6119808,11.9348954 53.2890625,12.0234375 C52.9661442,12.1119796 52.6250018,12.15625 52.265625,12.15625 C51.7135389,12.15625 51.2122418,12.0533864 50.7617188,11.8476562 C50.3111957,11.6419261 49.9244808,11.3554706 49.6015625,10.9882812 C49.2786442,10.6210919 49.0286467,10.1848984 48.8515625,9.6796875 C48.6744783,9.17447664 48.5859375,8.61979469 48.5859375,8.015625 C48.5859375,7.40624695 48.6744783,6.84765879 48.8515625,6.33984375 C49.0286467,5.83202871 49.2786442,5.39453309 49.6015625,5.02734375 C49.9244808,4.66015441 50.3111957,4.37369895 50.7617188,4.16796875 C51.2122418,3.96223855 51.7135389,3.859375 52.265625,3.859375 C52.6250018,3.859375 52.9661442,3.90364539 53.2890625,3.9921875 C53.6119808,4.08072961 53.9088528,4.20572836 54.1796875,4.3671875 C54.4505222,4.52864664 54.6914052,4.72525926 54.9023438,4.95703125 C55.1132823,5.18880324 55.2864577,5.44531109 55.421875,5.7265625 L54.328125,6.3515625 C54.2291662,6.16406156 54.1132819,5.98828207 53.9804688,5.82421875 C53.8476556,5.66015543 53.6966154,5.51822977 53.5273438,5.3984375 C53.3580721,5.27864523 53.1679698,5.1835941 52.9570312,5.11328125 C52.7460927,5.0429684 52.5156262,5.0078125 52.265625,5.0078125 C51.8802064,5.0078125 51.5429702,5.08723879 51.2539062,5.24609375 C50.9648423,5.40494871 50.7239593,5.61848824 50.53125,5.88671875 C50.3385407,6.15494926 50.1927088,6.4687482 50.09375,6.828125 C49.9947912,7.1875018 49.9453125,7.56770633 49.9453125,7.96875 L49.9453125,8.046875 Z M58.5625,7.9375 L62.3203125,4.015625 L63.96875,4.015625 L60.9296875,7.1875 L64.109375,12 L62.5078125,12 L60,8.0625 L58.5625,9.5390625 L58.5625,12 L57.25,12 L57.25,0.796875 L58.5625,0.796875 L58.5625,7.9375 Z" id="feedback"></path>
                <rect id="Rectangle" x="0" y="14" width="64" height="1"></rect>
            </g>
            <g id="ALPHA-Logo">
                <rect id="background" fill="#005EA5" x="0" y="0" width="66" height="22"></rect>
                <path d="M12.390625,13.921875 L8.2421875,13.921875 L7.609375,16 L5.203125,16 L8.8671875,4.796875 L11.84375,4.796875 L15.5625,16 L13.03125,16 L12.390625,13.921875 Z M8.8515625,11.921875 L11.78125,11.921875 L10.328125,7.1875 L10.296875,7.1875 L8.8515625,11.921875 Z M17.875,4.796875 L20.140625,4.796875 L20.140625,13.90625 L24.578125,13.90625 L24.578125,16 L17.875,16 L17.875,4.796875 Z M26.984375,4.796875 L31.4609375,4.796875 C32.0390654,4.796875 32.5611956,4.89192613 33.0273438,5.08203125 C33.4934919,5.27213637 33.8880192,5.53255043 34.2109375,5.86328125 C34.5338558,6.19401207 34.7825512,6.58593523 34.9570312,7.0390625 C35.1315113,7.49218977 35.21875,7.98437234 35.21875,8.515625 C35.21875,9.04687766 35.1236989,9.53906023 34.9335938,9.9921875 C34.7434886,10.4453148 34.4752621,10.8372379 34.1289062,11.1679688 C33.7825504,11.4986996 33.3671899,11.7578116 32.8828125,11.9453125 C32.3984351,12.1328134 31.8645863,12.2265625 31.28125,12.2265625 L29.25,12.2265625 L29.25,16 L26.984375,16 L26.984375,4.796875 Z M32.8828125,8.4765625 C32.8828125,8.21093617 32.835938,7.97526145 32.7421875,7.76953125 C32.648437,7.56380105 32.5130217,7.38802156 32.3359375,7.2421875 C32.1588533,7.09635344 31.9453138,6.98567746 31.6953125,6.91015625 C31.4453112,6.83463504 31.1640641,6.796875 30.8515625,6.796875 L29.25,6.796875 L29.25,10.2265625 L30.8515625,10.2265625 C31.1640641,10.2265625 31.4453112,10.1888025 31.6953125,10.1132812 C31.9453138,10.03776 32.1588533,9.92708406 32.3359375,9.78125 C32.5130217,9.63541594 32.648437,9.45963645 32.7421875,9.25390625 C32.835938,9.04817605 32.8828125,8.81250133 32.8828125,8.546875 L32.8828125,8.4765625 Z M44.859375,11.28125 L39.9296875,11.28125 L39.9296875,16 L37.6640625,16 L37.6640625,4.796875 L39.9296875,4.796875 L39.9296875,9.234375 L44.859375,9.234375 L44.859375,4.796875 L47.1328125,4.796875 L47.1328125,16 L44.859375,16 L44.859375,11.28125 Z M56.640625,13.921875 L52.4921875,13.921875 L51.859375,16 L49.453125,16 L53.1171875,4.796875 L56.09375,4.796875 L59.8125,16 L57.28125,16 L56.640625,13.921875 Z M53.1015625,11.921875 L56.03125,11.921875 L54.578125,7.1875 L54.546875,7.1875 L53.1015625,11.921875 Z" id="ALPHA" fill="#FFFFFF"></path>
            </g>
        </g>
    </g>
</svg>